<?xml version="1.0" encoding="utf-8"?>
<!-- Generator: Adobe Illustrator 24.1.1, SVG Export Plug-In . SVG Version: 6.00 Build 0)  -->
<svg version="1.1" id="Capa_1" xmlns="http://www.w3.org/2000/svg" xmlns:xlink="http://www.w3.org/1999/xlink" x="0px" y="0px"
	 viewBox="0 0 512 512" style="enable-background:new 0 0 512 512;" xml:space="preserve">
<style type="text/css">
	.st0{fill:#D3D3D3;}
	.st1{fill:#E0E4E4;}
	.st2{fill:#FFC107;}
</style>
<g>
	<path class="st0" d="M171.9,108.3c-12-7-35.5,6.4-35.5,20.3v75.5l47.7-27.6l9.1-21.3C193.2,149.3,179.3,112.6,171.9,108.3z"/>
	<path class="st1" d="M354.9,2.4c-4.3-2.5-9-3-13.2-1.9L341.4,0l-2.5,1.4c-1.4,0.6-2.7,1.3-3.9,2.2L147,112.2
		c5-2.3,11.1-2.4,16.6,0.8c12.8,7.4,20.6,21,20.6,35.7V512l0.1,0l7.1-19.3l20.2,3.5l7.1-19.3l20.2,3.5l7.1-19.3l20.2,3.5l7.1-19.3
		l20.2,3.5l7.1-19.3l20.2,3.5l7.1-19.3l20.2,3.5l7.1-19.3l20.2,3.5V38.2C375.6,23.4,367.7,9.8,354.9,2.4z"/>
	<g>
		<path class="st0" d="M279.8,156.3L205.9,199v-13.5l73.9-42.7V156.3z"/>
		<path class="st0" d="M279.8,225.5l-73.9,42.7v-13.5l73.9-42.7V225.5z"/>
		<path class="st0" d="M279.8,284.3l-73.9,42.7v-13.5l73.9-42.7V284.3z"/>
		<path class="st0" d="M279.8,343.2l-73.9,42.7v-13.5l73.9-42.7V343.2z"/>
		<path class="st0" d="M353.7,182.8l-36.9,21.3v-13.5l36.9-21.3V182.8z"/>
		<path class="st0" d="M353.7,241.6l-36.9,21.3v-13.5l36.9-21.3V241.6z"/>
		<path class="st0" d="M353.7,300.5l-36.9,21.3v-13.5l36.9-21.3V300.5z"/>
	</g>
</g>
<path class="st2" d="M435.2,96.3c-0.6-1.8-2.2-3.1-4-3.2l-25.5-2.3l-10.1-23.6c-0.7-1.7-2.4-2.9-4.3-2.9c-1.9,0-3.6,1.1-4.3,2.9
	l-10.1,23.6l-25.5,2.3c-1.9,0.2-3.5,1.4-4,3.2s0,3.8,1.4,5l19.3,16.9l-5.7,25.1c-0.4,1.8,0.3,3.7,1.8,4.9c0.8,0.6,1.8,0.9,2.8,0.9
	c0.8,0,1.7-0.2,2.4-0.7l22-13.2l22,13.2c1.6,1,3.6,0.9,5.2-0.2c1.5-1.1,2.2-3,1.8-4.9l-5.7-25.1l19.3-16.9
	C435.2,100.1,435.7,98.1,435.2,96.3z"/>
<path class="st2" d="M475.5,254.5c-0.6-1.8-2.2-3.1-4-3.2l-25.5-2.3l-10.1-23.6c-0.7-1.7-2.4-2.9-4.3-2.9s-3.6,1.1-4.3,2.9
	L417.1,249l-25.5,2.3c-1.9,0.2-3.5,1.4-4,3.2c-0.6,1.8,0,3.8,1.4,5l19.3,16.9l-5.7,25.1c-0.4,1.8,0.3,3.7,1.8,4.9
	c0.8,0.6,1.8,0.9,2.8,0.9c0.8,0,1.7-0.2,2.4-0.7l22-13.2l22,13.2c1.6,1,3.6,0.9,5.2-0.2c1.5-1.1,2.2-3,1.8-4.9l-5.7-25.1l19.3-16.9
	C475.5,258.3,476,256.3,475.5,254.5z"/>
</svg>
