<svg xmlns="http://www.w3.org/2000/svg" xmlns:xlink="http://www.w3.org/1999/xlink" viewBox="0 0 113.85 87.64"><defs><style>.cls-1{fill:none;}.cls-2{clip-path:url(#clip-path);}.cls-3{fill:#c72969;}.cls-4{fill:#d40600;}.cls-5{fill:#f6c9a3;}.cls-6{fill:#fbbb80;}.cls-7{fill:#efefef;}.cls-8{fill:#383838;}.cls-9{fill:#636363;}</style><clipPath id="clip-path" transform="translate(0)"><rect class="cls-1" width="113.85" height="87.64"/></clipPath></defs><title>Ресурс 1</title><g id="Слой_2" data-name="Слой 2"><g id="Слой_1-2" data-name="Слой 1"><g class="cls-2"><path class="cls-3" d="M70.54,68.19a18.19,18.19,0,0,1-2.31-1.78c-.94-.9-1.85-2.34-3.22-2.52a18,18,0,0,1-4.27-.61c-1-.39-2.05-.69-3.08-1a6.7,6.7,0,0,1,1-.15c-.79-3-1.71-6.21-1.63-9.34a9.09,9.09,0,0,0-.22-2.33,10.8,10.8,0,0,0-.87-1.65c-.27-.63,0-1.22-.85-1.57a3.33,3.33,0,0,0-1.69-.08c-1.5.2-3,.43-4.48.71a2,2,0,0,0-.6.18,1.58,1.58,0,0,0-.7,1.33c-.17,2.76-1.21,5-2.3,7.47a1.47,1.47,0,0,0-.17.79,1.59,1.59,0,0,0,.35.65A11.92,11.92,0,0,0,48,60.87a8.54,8.54,0,0,0,4.09,1.57c1,.05,2.12.31,3.13.29h0a6.92,6.92,0,0,1,.21,3.16,5,5,0,0,1-4.05,3,12.16,12.16,0,0,0,5.42,3.73c2.17.73,4.52.84,6.63,1.69a22.33,22.33,0,0,0,2.92,1A7.45,7.45,0,0,0,73,74.19c1.24-.94,2-2.42,3.26-3.32-2.13-.22-4-1.47-5.76-2.68" transform="translate(0)"/><path class="cls-4" d="M94.18,57.8s-4.49.36-6,8C86.68,73.08,87.4,78.38,95,84.47s-.78-26.67-.78-26.67" transform="translate(0)"/><path class="cls-5" d="M109.16,80.64a10.14,10.14,0,0,1-.44,2.28c-1.22,3.92-4.88,5.25-10.56,4.09-.35-.07-.68-.14-1-.23a98.94,98.94,0,0,1-11.84-3.91c-8.14-3.19-14.24-8.58-22.82-14.49C55,63.19,50.89,54.7,50.87,54.7c-1-2-2.49-3.69-3.5-3.91-2.3-.52-7.65-1.1-9.89-1.85a6.89,6.89,0,0,1-2.22-1.1,5.89,5.89,0,0,1-1.67-2.74,15.7,15.7,0,0,1-.83-5.18v0a15.94,15.94,0,0,1,.59-4.06,8.12,8.12,0,0,1,3.78-5.27,8.49,8.49,0,0,1,5.41-.39c1.59.33,2.28,1.12,3.65,1.82,2.3,1.16,4.75.33,7.06-.36,4.88-1.45,17-1.45,24.85,4.71,6.09,4.75,15.13,10.88,22,19.8,2,2.65,4.86,6.59,6.58,9.28l.68,1.08c6.5,10.86,1.82,14.13,1.82,14.13" transform="translate(0)"/><path class="cls-6" d="M113.85,81.91a3.3,3.3,0,0,1-.09.63c-1,5.11-8.78,5.9-15.6,4.47-.34-.07-.68-.14-1-.23-.08-.06-2.83-1.91-6-9A24.74,24.74,0,0,1,90,74.67h0c-1.65-5.14-.63-8,.75-12.68,1.61-5.48,9.27-5.88,9.4-5.84,2,2.65,4.86,6.59,6.58,9.28l.68,1.08c6.74,10.84,6.51,15.31,6.51,15.4" transform="translate(0)"/><path class="cls-3" d="M77.72,21.66a17.06,17.06,0,0,0-4.5-2.5h0a16.53,16.53,0,0,0-2.63-.94c-3-.95-5.77-1.5-6.8-1.76a.84.84,0,0,0-.3-.08l-.06,0c-.65-.23-.47,2.74-2,5.88a7.43,7.43,0,0,0-.78,1.35,11.07,11.07,0,0,1-3,3l-.75.49a8.43,8.43,0,0,0-2.69,2.41h0a4.86,4.86,0,0,0-.47.94h0a3.4,3.4,0,0,0-.19,1.11c0,.72.57,1.55,0,2.15a3.41,3.41,0,0,1,1.62.15c.3.06.61.12.92.2,1.29.29,2.65.65,3,.71a55.76,55.76,0,0,1,5.68.7,54,54,0,0,1,9,2.89c4,1.87,10.75,5.67,10.75,5.67S81.86,25.1,77.72,21.66" transform="translate(0)"/><path class="cls-3" d="M43.53,48.42a10.09,10.09,0,0,1-3.64-3.81,18.77,18.77,0,0,1-1.71-5.54,2.62,2.62,0,0,1,.2-2,2.57,2.57,0,0,1,.74-.61,18.28,18.28,0,0,0,3.94-2.66c.54-.56,2.62-2.34,3.54-1.61-.53-.42-1.25-.62-1.72-1a7.85,7.85,0,0,1-1.17-.82c-1.71-1.73-2.56-4.77-3.5-6.71A33.72,33.72,0,0,0,30.9,12C20.71,3.85,10.39,4.68,6.17,1.86S0,.26,0,.26H0s0,0,0,.07A1.6,1.6,0,0,0,.08.53C.55,1.61,2.93,5.65,3.14,6,4.08,7.68,4.53,8.8,6.06,9.91c1.73,1.26,3.1,2.45,3.59,4.38a6.61,6.61,0,0,1,.15.7c0,.37.1.74.17,1.1.48,2.57,1.38,5,2.11,7.56.79,2.73,1.93,4.06,4.13,6l1.28,1.09c.51.43,1,.85,1.52,1.29a23.6,23.6,0,0,1,2.37,2.32c2,2.35,1.39,6.56.1,10.31a34,34,0,0,1-2.61,5.72c-.35.59-.73,1.17-1.14,1.73a12.48,12.48,0,0,1-2.56,2.72c-.25.19-.51.35-.77.52a16.08,16.08,0,0,1-3.57,1.59,24.47,24.47,0,0,1-8.95,1.15l.09,0-.82,0L9.3,63.34a38.69,38.69,0,0,1,5.28,3.87c1.93,1.78,3.55,3.94,6,5,2.91,1.21,7.8,2.46,10.85,1.32s5.34-4.36,6.42-7.45c1.65-4.73,6.75-14.39,9.48-15.27-.52.16-3.28-2-3.84-2.37" transform="translate(0)"/><path class="cls-7" d="M106.89,78.23c-.3,1.94-1.79,2.51-3.33,1.27a6.82,6.82,0,0,1-2.24-5.75c.31-1.94,1.8-2.5,3.33-1.27a6.82,6.82,0,0,1,2.24,5.75" transform="translate(0)"/><path class="cls-8" d="M106.3,77.84c-.19,1.22-1.13,1.58-2.09.8a4.26,4.26,0,0,1-1.4-3.61c.18-1.22,1.12-1.57,2.09-.8a4.3,4.3,0,0,1,1.4,3.61" transform="translate(0)"/><path class="cls-9" d="M104.77,76.61c-.11.71-.66.92-1.23.47a2.54,2.54,0,0,1-.82-2.12c.11-.71.66-.92,1.23-.46a2.51,2.51,0,0,1,.82,2.11" transform="translate(0)"/></g></g></g></svg>