<svg xmlns="http://www.w3.org/2000/svg" xmlns:xlink="http://www.w3.org/1999/xlink" viewBox="0 0 277.22 175.49"><defs><style>.cls-1{fill:none;}.cls-2{isolation:isolate;}.cls-3{clip-path:url(#clip-path);}.cls-4{fill:#23222d;}.cls-5{fill:#393843;}.cls-6{fill:#2d2c37;}.cls-7{fill:#504f58;}.cls-8{fill:#c4c2bb;}.cls-9{fill:#b0ac9e;}.cls-10{fill:#b7b4a9;}.cls-11{fill:#9d9783;}.cls-12{fill:#d5d2c9;}.cls-13{fill:#ded8d1;}.cls-14{fill:#f9f7f4;}.cls-15{fill:#fcfbfa;}.cls-16{mix-blend-mode:multiply;}.cls-17{clip-path:url(#clip-path-3);}.cls-18{fill:#ede8e4;}.cls-19{fill:#8694a1;}.cls-20{fill:#677e93;}.cls-21{fill:#f3f1ee;}.cls-22{fill:#ebe7e3;}.cls-23{fill:#cdc6bc;}.cls-24{mix-blend-mode:soft-light;}.cls-25{clip-path:url(#clip-path-4);}.cls-26{fill:#dbd8d5;}.cls-27{fill:#ccc9c6;}.cls-28{fill:#bfbcb9;}.cls-29{fill:#a19e9c;}.cls-30{fill:#7a7877;}.cls-31{fill:#42484e;}.cls-32{fill:#546064;}.cls-33{fill:#a197ad;}.cls-34{fill:#d4cbe2;}.cls-35{clip-path:url(#clip-path-5);}.cls-36{fill:#e6e2dc;}.cls-37{fill:#383838;}.cls-38{clip-path:url(#clip-path-6);}.cls-39{fill:#9c958d;}.cls-40{clip-path:url(#clip-path-7);}.cls-41{clip-path:url(#clip-path-8);}.cls-42{clip-path:url(#clip-path-9);}</style><clipPath id="clip-path" transform="translate(0 0)"><rect class="cls-1" width="277.22" height="175.49"/></clipPath><clipPath id="clip-path-3" transform="translate(0 0)"><rect class="cls-1" x="73.37" y="35.01" width="30.27" height="21.86"/></clipPath><clipPath id="clip-path-4" transform="translate(0 0)"><rect class="cls-1" x="204.9" y="80.01" width="21.15" height="11.62"/></clipPath><clipPath id="clip-path-5" transform="translate(0 0)"><rect class="cls-1" x="109.31" y="136.9" width="21.15" height="11.62"/></clipPath><clipPath id="clip-path-6" transform="translate(0 0)"><rect class="cls-1" x="59.36" y="45.54" width="200.09" height="117.36"/></clipPath><clipPath id="clip-path-7" transform="translate(0 0)"><rect class="cls-1" x="110.93" y="81.55" width="7.06" height="14.65"/></clipPath><clipPath id="clip-path-8" transform="translate(0 0)"><rect class="cls-1" x="98.29" y="73.29" width="4.13" height="5.24"/></clipPath><clipPath id="clip-path-9" transform="translate(0 0)"><rect class="cls-1" x="105.68" y="77.56" width="4.13" height="5.24"/></clipPath></defs><title>Ресурс 1</title><g class="cls-2"><g id="Слой_2" data-name="Слой 2"><g id="Слой_1-2" data-name="Слой 1"><g class="cls-3"><g class="cls-3"><path class="cls-4" d="M230.5,167.09a5.47,5.47,0,0,0-2.47-4.27,1.69,1.69,0,0,0-1.83-.13l-1.55.89,1,1.72a5.75,5.75,0,0,0,1.68,2.73l.92,1.51,1.36-.8a.89.89,0,0,0,.25-.14,1.82,1.82,0,0,0,.59-1.51" transform="translate(0 0)"/><path class="cls-5" d="M229,168c0,1.57-1.11,2.2-2.47,1.41a5.45,5.45,0,0,1-2.48-4.27c0-1.57,1.11-2.21,2.48-1.42A5.49,5.49,0,0,1,229,168" transform="translate(0 0)"/><path class="cls-6" d="M228.72,168c0,1.51-1.06,2.12-2.38,1.36A5.24,5.24,0,0,1,224,165.2c0-1.51,1.06-2.12,2.38-1.36a5.24,5.24,0,0,1,2.38,4.11" transform="translate(0 0)"/><path class="cls-7" d="M228.17,167.58c0,1.09-.77,1.53-1.72,1a3.8,3.8,0,0,1-1.72-3c0-1.09.77-1.53,1.72-1a3.8,3.8,0,0,1,1.72,3" transform="translate(0 0)"/><path class="cls-8" d="M228.06,167.45c0,1-.7,1.39-1.56.89a3.42,3.42,0,0,1-1.56-2.69c0-1,.69-1.39,1.56-.89a3.43,3.43,0,0,1,1.56,2.69" transform="translate(0 0)"/><path class="cls-9" d="M227.9,167.36c0,.89-.63,1.25-1.41.8a3.1,3.1,0,0,1-1.4-2.42c0-.89.63-1.25,1.4-.8a.77.77,0,0,1,.21.14,3.15,3.15,0,0,1,1.18,2,2.28,2.28,0,0,1,0,.26" transform="translate(0 0)"/><path class="cls-10" d="M227,167.8a3,3,0,0,1-1.33-2.3,1,1,0,0,1,.26-.75c-.49,0-.84.33-.84,1a3.1,3.1,0,0,0,1.4,2.42c.57.32,1.06.22,1.28-.2a1.1,1.1,0,0,1-.77-.16" transform="translate(0 0)"/><path class="cls-11" d="M227.88,167.1c-.15.21-.43.25-.75.07a1.92,1.92,0,0,1-.86-1.49c0-.36.18-.58.43-.6a3.15,3.15,0,0,1,1.18,2" transform="translate(0 0)"/><polygon class="cls-11" points="226.5 165.15 225.85 165.52 227.12 167.59 227.76 167.22 227.32 166.18 226.5 165.15"/><path class="cls-12" d="M227.36,167c0,.55-.39.77-.86.5a1.91,1.91,0,0,1-.87-1.49c0-.55.39-.77.87-.49a1.9,1.9,0,0,1,.86,1.48" transform="translate(0 0)"/><path class="cls-4" d="M225,165.94a.43.43,0,0,0,.23.33,1.3,1.3,0,0,0,1.17,0,.41.41,0,0,0,.25-.32h0l.53-22.49-1.63-.11L225,165.92h0Z" transform="translate(0 0)"/><path class="cls-4" d="M227.91,168.61a5.47,5.47,0,0,0-2.48-4.28,1.69,1.69,0,0,0-1.83-.13l-1.54.9,1,1.71a5.91,5.91,0,0,0,1.68,2.73l.93,1.51,1.36-.79a1,1,0,0,0,.24-.15,1.78,1.78,0,0,0,.6-1.5" transform="translate(0 0)"/><path class="cls-5" d="M226.38,169.49c0,1.57-1.11,2.2-2.48,1.41a5.45,5.45,0,0,1-2.48-4.27c0-1.57,1.11-2.2,2.48-1.41a5.45,5.45,0,0,1,2.48,4.27" transform="translate(0 0)"/><path class="cls-6" d="M226.13,169.46c0,1.51-1.07,2.12-2.38,1.36a5.25,5.25,0,0,1-2.39-4.11c0-1.51,1.07-2.12,2.39-1.36a5.26,5.26,0,0,1,2.38,4.11" transform="translate(0 0)"/><path class="cls-7" d="M225.58,169.09c0,1.09-.77,1.53-1.72,1a3.81,3.81,0,0,1-1.73-3c0-1.09.78-1.53,1.73-1a3.8,3.8,0,0,1,1.72,3" transform="translate(0 0)"/><path class="cls-8" d="M225.46,169c0,1-.7,1.39-1.56.89a3.44,3.44,0,0,1-1.56-2.69c0-1,.7-1.39,1.56-.89a3.44,3.44,0,0,1,1.56,2.69" transform="translate(0 0)"/><path class="cls-9" d="M225.31,168.87c0,.89-.63,1.25-1.41.8a3.1,3.1,0,0,1-1.4-2.42c0-.89.63-1.25,1.4-.8l.21.14a3.15,3.15,0,0,1,1.18,2,2.46,2.46,0,0,1,0,.26" transform="translate(0 0)"/><path class="cls-10" d="M224.41,169.31a2.91,2.91,0,0,1-1.33-2.29,1.05,1.05,0,0,1,.26-.76c-.49,0-.84.33-.84,1a3.1,3.1,0,0,0,1.4,2.42c.57.33,1,.22,1.28-.2a1.09,1.09,0,0,1-.77-.16" transform="translate(0 0)"/><path class="cls-11" d="M225.29,168.61a.53.53,0,0,1-.75.07,1.89,1.89,0,0,1-.86-1.49c0-.36.17-.58.43-.6a3.15,3.15,0,0,1,1.18,2" transform="translate(0 0)"/><polygon class="cls-11" points="223.9 166.66 223.26 167.03 224.53 169.1 225.16 168.73 224.73 167.69 223.9 166.66"/><path class="cls-12" d="M224.76,168.56c0,.54-.38.76-.86.49a1.92,1.92,0,0,1-.86-1.49c0-.54.39-.76.86-.49a1.89,1.89,0,0,1,.86,1.49" transform="translate(0 0)"/><path class="cls-4" d="M120.07,101.59a5.47,5.47,0,0,0-2.47-4.27,1.69,1.69,0,0,0-1.83-.13l-1.55.89,1,1.72a5.8,5.8,0,0,0,1.68,2.73l.92,1.51,1.36-.8a.89.89,0,0,0,.25-.14,1.82,1.82,0,0,0,.59-1.51" transform="translate(0 0)"/><path class="cls-5" d="M118.54,102.48c0,1.57-1.11,2.2-2.47,1.41a5.45,5.45,0,0,1-2.48-4.27c0-1.58,1.11-2.21,2.48-1.42a5.49,5.49,0,0,1,2.47,4.28" transform="translate(0 0)"/><path class="cls-6" d="M118.29,102.45c0,1.51-1.06,2.12-2.38,1.36a5.24,5.24,0,0,1-2.38-4.11c0-1.52,1.06-2.12,2.38-1.36a5.24,5.24,0,0,1,2.38,4.11" transform="translate(0 0)"/><path class="cls-7" d="M117.74,102.08c0,1.09-.77,1.53-1.72,1a3.8,3.8,0,0,1-1.72-3c0-1.09.77-1.53,1.72-1a3.77,3.77,0,0,1,1.72,3" transform="translate(0 0)"/><path class="cls-8" d="M117.63,102c0,1-.7,1.38-1.56.89a3.42,3.42,0,0,1-1.56-2.69c0-1,.69-1.39,1.56-.89a3.43,3.43,0,0,1,1.56,2.69" transform="translate(0 0)"/><path class="cls-9" d="M117.47,101.86c0,.89-.63,1.25-1.41.8a3.1,3.1,0,0,1-1.4-2.42c0-.89.63-1.25,1.4-.8a1.07,1.07,0,0,1,.21.13,3.2,3.2,0,0,1,1.18,2,2.28,2.28,0,0,1,0,.26" transform="translate(0 0)"/><path class="cls-10" d="M116.57,102.3a3,3,0,0,1-1.33-2.3,1,1,0,0,1,.26-.75c-.49,0-.84.33-.84,1a3.1,3.1,0,0,0,1.4,2.42c.57.32,1.06.22,1.28-.2a1.1,1.1,0,0,1-.77-.16" transform="translate(0 0)"/><path class="cls-11" d="M117.45,101.6c-.14.21-.43.25-.75.07a1.92,1.92,0,0,1-.86-1.49c0-.37.18-.58.43-.61a3.2,3.2,0,0,1,1.18,2" transform="translate(0 0)"/><polygon class="cls-11" points="116.06 99.65 115.42 100.02 116.69 102.08 117.33 101.72 116.89 100.68 116.06 99.65"/><path class="cls-12" d="M116.93,101.54c0,.55-.39.77-.86.49a1.87,1.87,0,0,1-.87-1.48c0-.55.39-.77.87-.49a1.9,1.9,0,0,1,.86,1.48" transform="translate(0 0)"/><path class="cls-4" d="M114.61,100.44a.43.43,0,0,0,.23.33,1.3,1.3,0,0,0,1.17,0,.41.41,0,0,0,.25-.32h0L116.79,78l-1.63-.11-.55,22.56h0Z" transform="translate(0 0)"/><path class="cls-4" d="M117.48,103.11A5.47,5.47,0,0,0,115,98.83a1.68,1.68,0,0,0-1.82-.13l-1.55.9,1,1.71a5.91,5.91,0,0,0,1.68,2.73l.93,1.51,1.36-.79a1,1,0,0,0,.24-.15,1.78,1.78,0,0,0,.6-1.5" transform="translate(0 0)"/><path class="cls-5" d="M116,104c0,1.57-1.11,2.2-2.48,1.41a5.45,5.45,0,0,1-2.48-4.27c0-1.57,1.11-2.2,2.48-1.41A5.45,5.45,0,0,1,116,104" transform="translate(0 0)"/><path class="cls-6" d="M115.7,104c0,1.51-1.07,2.12-2.38,1.36a5.25,5.25,0,0,1-2.39-4.11c0-1.51,1.07-2.12,2.39-1.36A5.26,5.26,0,0,1,115.7,104" transform="translate(0 0)"/><path class="cls-7" d="M115.15,103.59c0,1.09-.77,1.53-1.72,1a3.78,3.78,0,0,1-1.73-3c0-1.09.77-1.53,1.73-1a3.8,3.8,0,0,1,1.72,3" transform="translate(0 0)"/><path class="cls-8" d="M115,103.46c0,1-.7,1.39-1.56.89a3.44,3.44,0,0,1-1.56-2.69c0-1,.7-1.39,1.56-.89a3.44,3.44,0,0,1,1.56,2.69" transform="translate(0 0)"/><path class="cls-9" d="M114.88,103.37c0,.89-.63,1.25-1.41.8a3.1,3.1,0,0,1-1.4-2.42c0-.89.63-1.25,1.4-.8l.21.14a3.19,3.19,0,0,1,1.18,2,2.28,2.28,0,0,1,0,.26" transform="translate(0 0)"/><path class="cls-10" d="M114,103.81a3,3,0,0,1-1.33-2.29,1.05,1.05,0,0,1,.26-.76c-.49,0-.84.33-.84,1a3.1,3.1,0,0,0,1.4,2.42c.57.32,1,.22,1.28-.2a1.09,1.09,0,0,1-.77-.16" transform="translate(0 0)"/><path class="cls-11" d="M114.86,103.11c-.15.21-.43.25-.75.07a1.89,1.89,0,0,1-.86-1.49c0-.36.17-.58.43-.6a3.19,3.19,0,0,1,1.18,2" transform="translate(0 0)"/><polygon class="cls-11" points="113.47 101.16 112.83 101.53 114.1 103.6 114.73 103.23 114.3 102.19 113.47 101.16"/><path class="cls-12" d="M114.33,103.06c0,.54-.38.76-.86.49a1.92,1.92,0,0,1-.86-1.49c0-.54.39-.76.86-.49a1.89,1.89,0,0,1,.86,1.49" transform="translate(0 0)"/><path class="cls-4" d="M158.15,134.19a5.47,5.47,0,0,0-2.48-4.28,1.73,1.73,0,0,0-1.83-.13l-1.55.9,1.05,1.71a5.78,5.78,0,0,0,1.68,2.74l.92,1.5,1.36-.79a2,2,0,0,0,.25-.14,1.84,1.84,0,0,0,.6-1.51" transform="translate(0 0)"/><path class="cls-5" d="M156.62,135.07c0,1.57-1.11,2.21-2.48,1.42a5.47,5.47,0,0,1-2.48-4.28c0-1.57,1.11-2.2,2.48-1.41a5.45,5.45,0,0,1,2.48,4.27" transform="translate(0 0)"/><path class="cls-6" d="M156.37,135c0,1.52-1.07,2.12-2.39,1.36a5.26,5.26,0,0,1-2.38-4.11c0-1.51,1.07-2.12,2.38-1.36a5.25,5.25,0,0,1,2.39,4.11" transform="translate(0 0)"/><path class="cls-7" d="M155.81,134.67c0,1.09-.77,1.53-1.72,1a3.8,3.8,0,0,1-1.72-3c0-1.09.77-1.53,1.72-1a3.8,3.8,0,0,1,1.72,3" transform="translate(0 0)"/><path class="cls-8" d="M155.7,134.54c0,1-.7,1.39-1.56.89a3.44,3.44,0,0,1-1.56-2.69c0-1,.7-1.39,1.56-.89a3.44,3.44,0,0,1,1.56,2.69" transform="translate(0 0)"/><path class="cls-9" d="M155.54,134.45c0,.89-.63,1.25-1.4.8a3.06,3.06,0,0,1-1.4-2.42c0-.89.62-1.25,1.4-.8l.21.14a3.26,3.26,0,0,1,1.18,2,2.35,2.35,0,0,1,0,.26" transform="translate(0 0)"/><path class="cls-10" d="M154.65,134.89a2.91,2.91,0,0,1-1.33-2.29,1,1,0,0,1,.26-.76c-.5,0-.84.33-.84,1a3.06,3.06,0,0,0,1.4,2.42c.56.33,1.05.23,1.27-.2a1,1,0,0,1-.76-.16" transform="translate(0 0)"/><path class="cls-11" d="M155.52,134.19c-.14.22-.42.26-.74.07a1.89,1.89,0,0,1-.87-1.48c0-.37.18-.59.44-.61a3.21,3.21,0,0,1,1.17,2" transform="translate(0 0)"/><polygon class="cls-11" points="154.14 132.24 153.49 132.62 154.76 134.68 155.4 134.31 154.97 133.27 154.14 132.24"/><path class="cls-12" d="M155,134.14c0,.54-.39.76-.86.49a1.88,1.88,0,0,1-.86-1.49c0-.54.38-.76.86-.49a1.92,1.92,0,0,1,.86,1.49" transform="translate(0 0)"/><path class="cls-4" d="M152.69,133a.39.39,0,0,0,.22.32,1.27,1.27,0,0,0,1.17,0,.42.42,0,0,0,.25-.32h0l.54-22.5-1.64-.11L152.68,133h0v0Z" transform="translate(0 0)"/><path class="cls-4" d="M155.55,135.7a5.44,5.44,0,0,0-2.47-4.27,1.72,1.72,0,0,0-1.83-.14l-1.55.9,1.05,1.71a5.78,5.78,0,0,0,1.68,2.74l.92,1.51,1.36-.8a1.23,1.23,0,0,0,.25-.14,1.82,1.82,0,0,0,.59-1.51" transform="translate(0 0)"/><path class="cls-5" d="M154,136.59c0,1.57-1.11,2.2-2.47,1.41a5.47,5.47,0,0,1-2.48-4.28c0-1.57,1.11-2.2,2.48-1.41a5.47,5.47,0,0,1,2.47,4.28" transform="translate(0 0)"/><path class="cls-6" d="M153.77,136.56c0,1.51-1.06,2.12-2.38,1.36A5.26,5.26,0,0,1,149,133.8c0-1.51,1.06-2.12,2.38-1.36a5.26,5.26,0,0,1,2.38,4.12" transform="translate(0 0)"/><path class="cls-7" d="M153.22,136.18c0,1.09-.77,1.53-1.72,1a3.77,3.77,0,0,1-1.72-3c0-1.09.77-1.53,1.72-1a3.8,3.8,0,0,1,1.72,3" transform="translate(0 0)"/><path class="cls-8" d="M153.11,136.05c0,1-.7,1.39-1.56.89a3.4,3.4,0,0,1-1.56-2.69c0-1,.69-1.38,1.56-.89a3.46,3.46,0,0,1,1.56,2.69" transform="translate(0 0)"/><path class="cls-9" d="M153,136c0,.89-.63,1.25-1.41.8a3.09,3.09,0,0,1-1.4-2.42c0-.89.63-1.24,1.4-.8a1.1,1.1,0,0,1,.21.14,3.17,3.17,0,0,1,1.18,2,2.11,2.11,0,0,1,0,.25" transform="translate(0 0)"/><path class="cls-10" d="M152.05,136.4a2.93,2.93,0,0,1-1.33-2.29,1,1,0,0,1,.27-.76c-.5,0-.85.33-.85,1a3.07,3.07,0,0,0,1.41,2.42c.56.33,1,.23,1.27-.19a1.06,1.06,0,0,1-.77-.17" transform="translate(0 0)"/><path class="cls-11" d="M152.93,135.71c-.15.21-.43.25-.75.06a1.9,1.9,0,0,1-.86-1.48c0-.37.18-.59.43-.61a3.17,3.17,0,0,1,1.18,2" transform="translate(0 0)"/><polygon class="cls-11" points="151.54 133.75 150.9 134.13 152.17 136.19 152.81 135.83 152.37 134.79 151.54 133.75"/><path class="cls-12" d="M152.41,135.65c0,.55-.39.77-.86.49a1.89,1.89,0,0,1-.87-1.48c0-.55.39-.77.87-.49a1.9,1.9,0,0,1,.86,1.48" transform="translate(0 0)"/><path class="cls-4" d="M148.47,139.57a5.49,5.49,0,0,0-2.47-4.28,1.73,1.73,0,0,0-1.83-.13l-1.55.9,1,1.71a5.78,5.78,0,0,0,1.68,2.74l.92,1.5,1.36-.79a2,2,0,0,0,.25-.14,1.83,1.83,0,0,0,.59-1.51" transform="translate(0 0)"/><path class="cls-5" d="M146.94,140.45c0,1.57-1.11,2.21-2.48,1.42a5.49,5.49,0,0,1-2.47-4.28c0-1.57,1.11-2.2,2.47-1.41a5.45,5.45,0,0,1,2.48,4.27" transform="translate(0 0)"/><path class="cls-6" d="M146.69,140.42c0,1.51-1.06,2.12-2.38,1.36a5.24,5.24,0,0,1-2.38-4.11c0-1.51,1.06-2.12,2.38-1.36a5.24,5.24,0,0,1,2.38,4.11" transform="translate(0 0)"/><path class="cls-7" d="M146.14,140.05c0,1.09-.77,1.53-1.72,1a3.8,3.8,0,0,1-1.72-3c0-1.09.77-1.53,1.72-1a3.8,3.8,0,0,1,1.72,3" transform="translate(0 0)"/><path class="cls-8" d="M146,139.92c0,1-.7,1.39-1.57.89a3.44,3.44,0,0,1-1.56-2.69c0-1,.7-1.39,1.56-.89a3.43,3.43,0,0,1,1.57,2.69" transform="translate(0 0)"/><path class="cls-9" d="M145.87,139.83c0,.89-.63,1.25-1.41.8a3.1,3.1,0,0,1-1.4-2.42c0-.89.63-1.25,1.4-.8a1.1,1.1,0,0,1,.21.14,3.18,3.18,0,0,1,1.18,2,2.46,2.46,0,0,1,0,.26" transform="translate(0 0)"/><path class="cls-10" d="M145,140.27a2.93,2.93,0,0,1-1.33-2.29,1.05,1.05,0,0,1,.26-.76c-.49,0-.84.33-.84,1a3.09,3.09,0,0,0,1.4,2.42c.57.33,1.06.23,1.28-.2a1.05,1.05,0,0,1-.77-.16" transform="translate(0 0)"/><path class="cls-11" d="M145.85,139.57c-.15.22-.43.26-.75.07a1.9,1.9,0,0,1-.86-1.48c0-.37.18-.59.43-.61a3.18,3.18,0,0,1,1.18,2" transform="translate(0 0)"/><polygon class="cls-11" points="144.47 137.62 143.82 138 145.09 140.06 145.73 139.69 145.29 138.65 144.47 137.62"/><path class="cls-12" d="M145.33,139.52c0,.54-.39.76-.86.49a1.91,1.91,0,0,1-.87-1.49c0-.54.39-.76.87-.49a1.92,1.92,0,0,1,.86,1.49" transform="translate(0 0)"/><path class="cls-4" d="M143,138.42a.43.43,0,0,0,.23.32,1.27,1.27,0,0,0,1.17,0,.42.42,0,0,0,.25-.32h0l.53-22.5-1.63-.11L143,138.4h0v0Z" transform="translate(0 0)"/><path class="cls-4" d="M145.88,141.08a5.45,5.45,0,0,0-2.48-4.27,1.72,1.72,0,0,0-1.83-.14l-1.54.9,1,1.71a5.94,5.94,0,0,0,1.68,2.74l.93,1.5,1.36-.79a1.38,1.38,0,0,0,.24-.14,1.81,1.81,0,0,0,.6-1.51" transform="translate(0 0)"/><path class="cls-5" d="M144.35,142c0,1.58-1.11,2.21-2.48,1.42a5.47,5.47,0,0,1-2.48-4.28c0-1.57,1.11-2.2,2.48-1.41a5.45,5.45,0,0,1,2.48,4.27" transform="translate(0 0)"/><path class="cls-6" d="M144.1,141.94c0,1.51-1.07,2.12-2.38,1.35a5.25,5.25,0,0,1-2.39-4.11c0-1.51,1.07-2.12,2.39-1.36a5.27,5.27,0,0,1,2.38,4.12" transform="translate(0 0)"/><path class="cls-7" d="M143.55,141.56c0,1.09-.77,1.53-1.72,1a3.75,3.75,0,0,1-1.73-3c0-1.09.77-1.53,1.73-1a3.8,3.8,0,0,1,1.72,3" transform="translate(0 0)"/><path class="cls-8" d="M143.43,141.43c0,1-.7,1.39-1.56.89a3.43,3.43,0,0,1-1.56-2.69c0-1,.7-1.38,1.56-.89a3.46,3.46,0,0,1,1.56,2.69" transform="translate(0 0)"/><path class="cls-9" d="M143.28,141.34c0,.89-.63,1.25-1.41.8a3.09,3.09,0,0,1-1.4-2.42c0-.89.63-1.24,1.4-.8l.21.14a3.18,3.18,0,0,1,1.18,2,2.46,2.46,0,0,1,0,.26" transform="translate(0 0)"/><path class="cls-10" d="M142.38,141.78a2.91,2.91,0,0,1-1.33-2.29,1.05,1.05,0,0,1,.26-.76c-.49,0-.84.33-.84,1a3.09,3.09,0,0,0,1.4,2.42c.57.33,1,.23,1.28-.2a1,1,0,0,1-.77-.16" transform="translate(0 0)"/><path class="cls-11" d="M143.26,141.08c-.15.22-.43.26-.75.07a1.88,1.88,0,0,1-.86-1.48c0-.37.17-.59.43-.61a3.22,3.22,0,0,1,1.18,2" transform="translate(0 0)"/><polygon class="cls-11" points="141.87 139.13 141.23 139.51 142.5 141.57 143.13 141.21 142.7 140.17 141.87 139.13"/><path class="cls-12" d="M142.73,141c0,.55-.38.77-.86.49A1.9,1.9,0,0,1,141,140c0-.55.39-.77.86-.49a1.88,1.88,0,0,1,.86,1.48" transform="translate(0 0)"/><path class="cls-4" d="M206.1,105.57a5.45,5.45,0,0,0-2.48-4.27,1.68,1.68,0,0,0-1.82-.13l-1.55.89,1.05,1.72a5.8,5.8,0,0,0,1.68,2.73l.92,1.51,1.36-.8a.89.89,0,0,0,.25-.14,1.82,1.82,0,0,0,.59-1.51" transform="translate(0 0)"/><path class="cls-5" d="M204.57,106.46c0,1.57-1.11,2.2-2.48,1.41a5.45,5.45,0,0,1-2.48-4.27c0-1.58,1.11-2.21,2.48-1.42a5.47,5.47,0,0,1,2.48,4.28" transform="translate(0 0)"/><path class="cls-6" d="M204.32,106.43c0,1.51-1.06,2.12-2.38,1.36a5.25,5.25,0,0,1-2.39-4.11c0-1.51,1.07-2.12,2.39-1.36a5.24,5.24,0,0,1,2.38,4.11" transform="translate(0 0)"/><path class="cls-7" d="M203.77,106.06c0,1.09-.77,1.53-1.72,1a3.8,3.8,0,0,1-1.72-3c0-1.09.77-1.53,1.72-1a3.77,3.77,0,0,1,1.72,3" transform="translate(0 0)"/><path class="cls-8" d="M203.65,105.93c0,1-.7,1.38-1.56.89a3.44,3.44,0,0,1-1.56-2.69c0-1,.7-1.39,1.56-.89a3.43,3.43,0,0,1,1.56,2.69" transform="translate(0 0)"/><path class="cls-9" d="M203.5,105.84c0,.89-.63,1.25-1.41.8a3.1,3.1,0,0,1-1.4-2.42c0-.89.63-1.25,1.4-.8l.21.13a3.2,3.2,0,0,1,1.18,2,2.28,2.28,0,0,1,0,.26" transform="translate(0 0)"/><path class="cls-10" d="M202.6,106.28a3,3,0,0,1-1.33-2.3,1,1,0,0,1,.26-.75c-.49,0-.84.33-.84,1a3.1,3.1,0,0,0,1.4,2.42c.57.32,1,.22,1.28-.2a1.1,1.1,0,0,1-.77-.16" transform="translate(0 0)"/><path class="cls-11" d="M203.48,105.58c-.15.21-.43.25-.75.07a1.92,1.92,0,0,1-.86-1.49c0-.37.17-.58.43-.61a3.2,3.2,0,0,1,1.18,2" transform="translate(0 0)"/><polygon class="cls-11" points="202.09 103.63 201.45 104 202.72 106.06 203.36 105.7 202.92 104.66 202.09 103.63"/><path class="cls-12" d="M203,105.52c0,.55-.38.77-.86.49a1.89,1.89,0,0,1-.86-1.48c0-.55.39-.77.86-.49a1.88,1.88,0,0,1,.86,1.48" transform="translate(0 0)"/><path class="cls-4" d="M200.64,104.42a.43.43,0,0,0,.23.33,1.3,1.3,0,0,0,1.17,0,.41.41,0,0,0,.25-.32h0L202.82,82l-1.64-.11-.54,22.56h0Z" transform="translate(0 0)"/><path class="cls-4" d="M203.51,107.09a5.47,5.47,0,0,0-2.48-4.28,1.69,1.69,0,0,0-1.83-.13l-1.55.9,1,1.71a5.83,5.83,0,0,0,1.68,2.73l.92,1.51,1.37-.79a1.2,1.2,0,0,0,.24-.15,1.81,1.81,0,0,0,.6-1.5" transform="translate(0 0)"/><path class="cls-5" d="M202,108c0,1.57-1.11,2.2-2.48,1.41a5.45,5.45,0,0,1-2.48-4.27c0-1.57,1.11-2.2,2.48-1.41A5.45,5.45,0,0,1,202,108" transform="translate(0 0)"/><path class="cls-6" d="M201.73,107.94c0,1.51-1.07,2.12-2.38,1.36a5.25,5.25,0,0,1-2.39-4.11c0-1.51,1.07-2.12,2.39-1.36a5.26,5.26,0,0,1,2.38,4.11" transform="translate(0 0)"/><path class="cls-7" d="M201.18,107.57c0,1.09-.77,1.53-1.73,1a3.8,3.8,0,0,1-1.72-3c0-1.09.77-1.53,1.72-1a3.78,3.78,0,0,1,1.73,3" transform="translate(0 0)"/><path class="cls-8" d="M201.06,107.44c0,1-.7,1.39-1.56.89a3.44,3.44,0,0,1-1.56-2.69c0-1,.7-1.39,1.56-.89a3.44,3.44,0,0,1,1.56,2.69" transform="translate(0 0)"/><path class="cls-9" d="M200.9,107.35c0,.89-.62,1.25-1.4.8a3.1,3.1,0,0,1-1.4-2.42c0-.89.63-1.25,1.4-.8l.21.14a3.24,3.24,0,0,1,1.18,2,2.26,2.26,0,0,1,0,.26" transform="translate(0 0)"/><path class="cls-10" d="M200,107.79a2.92,2.92,0,0,1-1.33-2.29,1.05,1.05,0,0,1,.26-.76c-.5,0-.84.33-.84,1a3.1,3.1,0,0,0,1.4,2.42c.56.33,1.05.22,1.27-.2a1.08,1.08,0,0,1-.76-.16" transform="translate(0 0)"/><path class="cls-11" d="M200.89,107.09c-.15.21-.43.25-.75.07a1.89,1.89,0,0,1-.86-1.49c0-.36.17-.58.43-.6a3.24,3.24,0,0,1,1.18,2" transform="translate(0 0)"/><polygon class="cls-11" points="199.5 105.14 198.85 105.51 200.13 107.58 200.76 107.21 200.33 106.17 199.5 105.14"/><path class="cls-12" d="M200.36,107c0,.54-.38.76-.86.49a1.92,1.92,0,0,1-.86-1.49c0-.54.39-.76.86-.49a1.89,1.89,0,0,1,.86,1.49" transform="translate(0 0)"/><path class="cls-4" d="M196.43,111a5.45,5.45,0,0,0-2.48-4.27,1.69,1.69,0,0,0-1.83-.13l-1.55.89,1.05,1.71a5.86,5.86,0,0,0,1.68,2.74l.92,1.51,1.37-.8a.84.84,0,0,0,.24-.14,1.82,1.82,0,0,0,.6-1.51" transform="translate(0 0)"/><path class="cls-5" d="M194.9,111.84c0,1.57-1.11,2.2-2.48,1.41a5.45,5.45,0,0,1-2.48-4.27c0-1.58,1.11-2.21,2.48-1.42a5.47,5.47,0,0,1,2.48,4.28" transform="translate(0 0)"/><path class="cls-6" d="M194.65,111.81c0,1.51-1.07,2.12-2.38,1.36a5.25,5.25,0,0,1-2.39-4.11c0-1.52,1.07-2.12,2.39-1.36a5.26,5.26,0,0,1,2.38,4.11" transform="translate(0 0)"/><path class="cls-7" d="M194.1,111.43c0,1.1-.77,1.54-1.73,1a3.8,3.8,0,0,1-1.72-3c0-1.1.77-1.53,1.72-1a3.78,3.78,0,0,1,1.73,3" transform="translate(0 0)"/><path class="cls-8" d="M194,111.31c0,1-.7,1.38-1.56.89a3.46,3.46,0,0,1-1.56-2.69c0-1,.7-1.39,1.56-.89a3.43,3.43,0,0,1,1.56,2.69" transform="translate(0 0)"/><path class="cls-9" d="M193.82,111.22c0,.89-.62,1.24-1.4.8a3.08,3.08,0,0,1-1.4-2.42c0-.89.62-1.25,1.4-.8l.21.13a3.29,3.29,0,0,1,1.18,2,2.26,2.26,0,0,1,0,.26" transform="translate(0 0)"/><path class="cls-10" d="M192.93,111.65a2.89,2.89,0,0,1-1.33-2.29,1,1,0,0,1,.26-.75c-.5,0-.84.33-.84,1a3.08,3.08,0,0,0,1.4,2.42c.56.32,1.05.22,1.27-.2a1,1,0,0,1-.76-.17" transform="translate(0 0)"/><path class="cls-11" d="M193.81,111c-.15.21-.43.25-.75.07a1.89,1.89,0,0,1-.86-1.49c0-.36.17-.58.43-.61a3.29,3.29,0,0,1,1.18,2" transform="translate(0 0)"/><polygon class="cls-11" points="192.42 109.01 191.77 109.38 193.05 111.44 193.68 111.08 193.25 110.04 192.42 109.01"/><path class="cls-12" d="M193.28,110.9c0,.55-.38.77-.86.49a1.89,1.89,0,0,1-.86-1.48c0-.55.39-.77.86-.49a1.88,1.88,0,0,1,.86,1.48" transform="translate(0 0)"/><path class="cls-4" d="M191,109.8a.42.42,0,0,0,.23.33,1.28,1.28,0,0,0,1.16,0,.41.41,0,0,0,.25-.32h0l.53-22.49-1.64-.11L191,109.78h0Z" transform="translate(0 0)"/><path class="cls-4" d="M193.84,112.47a5.47,5.47,0,0,0-2.48-4.28,1.69,1.69,0,0,0-1.83-.13L188,109l1.05,1.71a5.75,5.75,0,0,0,1.68,2.73l.92,1.51,1.36-.79a1.28,1.28,0,0,0,.25-.15,1.81,1.81,0,0,0,.6-1.5" transform="translate(0 0)"/><path class="cls-5" d="M192.31,113.35c0,1.57-1.11,2.2-2.48,1.41a5.45,5.45,0,0,1-2.48-4.27c0-1.57,1.11-2.21,2.48-1.42a5.48,5.48,0,0,1,2.48,4.28" transform="translate(0 0)"/><path class="cls-6" d="M192.06,113.32c0,1.51-1.07,2.12-2.39,1.36a5.26,5.26,0,0,1-2.38-4.11c0-1.51,1.07-2.12,2.38-1.36a5.25,5.25,0,0,1,2.39,4.11" transform="translate(0 0)"/><path class="cls-7" d="M191.5,113c0,1.09-.77,1.53-1.72,1a3.8,3.8,0,0,1-1.72-3c0-1.09.77-1.53,1.72-1a3.8,3.8,0,0,1,1.72,3" transform="translate(0 0)"/><path class="cls-8" d="M191.39,112.82c0,1-.7,1.39-1.56.89a3.44,3.44,0,0,1-1.56-2.69c0-1,.7-1.39,1.56-.89a3.44,3.44,0,0,1,1.56,2.69" transform="translate(0 0)"/><path class="cls-9" d="M191.23,112.73c0,.89-.63,1.25-1.4.8a3.09,3.09,0,0,1-1.41-2.42c0-.89.63-1.25,1.41-.8l.21.14a3.18,3.18,0,0,1,1.17,2,2.28,2.28,0,0,1,0,.26" transform="translate(0 0)"/><path class="cls-10" d="M190.33,113.17a3,3,0,0,1-1.33-2.29,1,1,0,0,1,.27-.76c-.5,0-.85.33-.85,1a3.09,3.09,0,0,0,1.41,2.42c.56.32,1,.22,1.27-.2a1.1,1.1,0,0,1-.77-.16" transform="translate(0 0)"/><path class="cls-11" d="M191.21,112.47c-.14.21-.42.25-.75.07a1.92,1.92,0,0,1-.86-1.49c0-.36.18-.58.43-.6a3.15,3.15,0,0,1,1.18,2" transform="translate(0 0)"/><polygon class="cls-11" points="189.83 110.52 189.18 110.89 190.45 112.96 191.09 112.59 190.66 111.55 189.83 110.52"/><path class="cls-12" d="M190.69,112.42c0,.54-.39.76-.86.49a1.89,1.89,0,0,1-.86-1.49c0-.54.38-.76.86-.49a1.92,1.92,0,0,1,.86,1.49" transform="translate(0 0)"/><polygon class="cls-13" points="96.27 58.12 99.34 53.92 116.63 29.24 117.28 27.08 73.37 44.89 96.27 58.12"/><polygon class="cls-14" points="96.27 56.87 99.34 52.67 117.28 27.08 108.3 20.13 73.37 43.65 96.27 56.87"/><polygon class="cls-15" points="105.4 22.08 110.39 27.08 89.56 54.49 81.01 38.5 105.4 22.08"/><g class="cls-16"><g class="cls-17"><path class="cls-18" d="M86.2,35s12.57,6.6,13,6.74,4.4,4.79,4.4,4.79L96.27,56.87,73.37,43.65Z" transform="translate(0 0)"/></g></g><path class="cls-19" d="M202.51,87.15a10.79,10.79,0,0,1,4.9-8.45,4,4,0,0,1,2.75-.62l2.65.57-.73,1.27a5,5,0,0,1,.23,1.57,10.81,10.81,0,0,1-4.9,8.46,5.67,5.67,0,0,1-1.39.57l-.79,1.38-1.86-2.06a3.9,3.9,0,0,1-.86-2.69" transform="translate(0 0)"/><path class="cls-20" d="M204.29,88.9a12.18,12.18,0,0,1,5.53-9.53,4.28,4.28,0,0,1,3.35-.63l2.94.82-.92,1.58a5.83,5.83,0,0,1,.15,1.38,12.17,12.17,0,0,1-5.52,9.53,6,6,0,0,1-1.36.59l-.9,1.54-2.17-2.12a4.25,4.25,0,0,1-1.1-3.16" transform="translate(0 0)"/><path class="cls-21" d="M207.72,94.37A5,5,0,0,1,206.67,91a13.59,13.59,0,0,1,6.17-10.64,5,5,0,0,1,3.5-.78h0l.2,0,8.53,2.12-11.24,18.94-5.94-6.17-.18-.18Z" transform="translate(0 0)"/><path class="cls-21" d="M212.42,96.35c0-5,3.54-11.12,7.91-13.64,2.2-1.28,4.19-1.39,5.63-.56h0a19.55,19.55,0,0,1,8.75,5.78c3.64,4-5.63,20.13-10.61,18.33a33.1,33.1,0,0,1-9.46-4.89h0c-1.36-.84-2.2-2.57-2.2-5" transform="translate(0 0)"/><path class="cls-22" d="M221,101a16.61,16.61,0,0,1,7.53-13c2.1-1.21,4-1.32,5.36-.52h0l1.23.71-.15.25a6.24,6.24,0,0,1,1.1,3.86,16.6,16.6,0,0,1-7.54,13,6.31,6.31,0,0,1-4,1l-.14.23-1.13-.65-.15-.09h0c-1.3-.8-2.09-2.45-2.09-4.77" transform="translate(0 0)"/><path class="cls-22" d="M202.51,87.15a5.43,5.43,0,0,0,0,.71,4.34,4.34,0,0,0,.19.86,2.9,2.9,0,0,0,.63,1.12l1.86,2.06.16.16,2.17,2.12h0l.16.2h0l.18.18,5.94,6.17h0a3.69,3.69,0,0,0,.78.65h0a33.1,33.1,0,0,0,9.32,4.84l0,0,.43.25.07-.12a2.88,2.88,0,0,0,1.38-.12l.19,0a5,5,0,0,0,.53-.12l-2-8.08a36.12,36.12,0,0,1-11.72-5.1A65.49,65.49,0,0,1,203,84.36a8.91,8.91,0,0,0-.31,1.09,7.8,7.8,0,0,0-.2,1.7" transform="translate(0 0)"/><path class="cls-13" d="M202.51,87.15a5.43,5.43,0,0,0,0,.71,4.34,4.34,0,0,0,.19.86,2.9,2.9,0,0,0,.63,1.12l1.86,2.06.16.16,2.17,2.12h0l.16.2h0l.18.18,5.94,6.17h0a3.69,3.69,0,0,0,.78.65h0a33.1,33.1,0,0,0,9.32,4.84l0,0,.43.25.07-.12a2.88,2.88,0,0,0,1.38-.12l.19,0a50.36,50.36,0,0,0-1.38-5.25,32.65,32.65,0,0,1-12.18-6,99.61,99.61,0,0,1-9.8-9.48,7.8,7.8,0,0,0-.2,1.7" transform="translate(0 0)"/><path class="cls-23" d="M202.55,87.86a4.34,4.34,0,0,0,.19.86,2.9,2.9,0,0,0,.63,1.12l1.86,2.06h0l.16.16,2.17,2.12h0l.16.2h0l.18.18,5.94,6.17h0a3.46,3.46,0,0,0,.78.65h0a33.1,33.1,0,0,0,9.32,4.84l0,0,0-1.67s-7.09-2.09-11.17-6.15c-3.5-3.48-8.81-9-10.26-10.55" transform="translate(0 0)"/><g class="cls-24"><g class="cls-25"><path class="cls-15" d="M204.9,81.47s2.51,1.42,4.29,2.39,4.73,2.1,6.92,3.07,8.12,4.7,8.12,4.7a16.5,16.5,0,0,1,1.82-2,39.34,39.34,0,0,0-8-5.2c-1.35-.65-12-4.4-12-4.4a8,8,0,0,0-1.16,1.46" transform="translate(0 0)"/></g></g><path class="cls-13" d="M208.46,78.22c2.82.68,12.19,2.94,14.5,3.48a20.09,20.09,0,0,1,10.37,6,27.63,27.63,0,0,0,2.45,2.27,5,5,0,0,0-.63-1.32l-.12-.23.13-.22-.53-.3a19.49,19.49,0,0,0-8.67-5.7h0a3.74,3.74,0,0,0-.87-.37h0l-.19,0-8.3-2.06-.2,0h0l-.23,0h0l-2.94-.82a2.22,2.22,0,0,0-.37-.09h0l-2.65-.57a3.39,3.39,0,0,0-1.7.14" transform="translate(0 0)"/><path class="cls-26" d="M222.28,101.68c0,4.77,3.37,6.7,7.53,4.29a16.6,16.6,0,0,0,7.54-13c0-4.78-3.38-6.7-7.54-4.3a16.6,16.6,0,0,0-7.53,13" transform="translate(0 0)"/><path class="cls-27" d="M223.28,101.7c0,4.47,3.16,6.27,7.05,4a15.53,15.53,0,0,0,7.06-12.16c0-4.47-3.16-6.27-7.06-4a15.53,15.53,0,0,0-7.05,12.16" transform="translate(0 0)"/><path class="cls-28" d="M224.1,101.23c0,4,2.79,5.55,6.23,3.56A13.74,13.74,0,0,0,236.57,94c0-4-2.79-5.55-6.24-3.56a13.76,13.76,0,0,0-6.23,10.76" transform="translate(0 0)"/><path class="cls-29" d="M224.69,100.89V101c0,.13,0,.25,0,.37s0,.48.08.7l.06.28a4.94,4.94,0,0,0,.24.74l.09.19a3.35,3.35,0,0,0,.27.45c1,1.38,2.8,1.63,4.89.42A12.44,12.44,0,0,0,236,94.37c0-2.25-1-3.65-2.51-3.94a2.78,2.78,0,0,0-.77-.05h-.2a4.08,4.08,0,0,0-.65.12l-.25.07-.56.21-.29.13-.42.23,0,0-.32.19-.37.26-.34.25-.29.25-.34.31a2.39,2.39,0,0,0-.23.22c-.12.11-.23.23-.34.35l-.18.2c-.12.13-.23.26-.34.4l-.14.18-.33.43-.12.17-.3.46c0,.05-.07.11-.11.17s-.19.32-.28.48a1.62,1.62,0,0,0-.1.18c-.09.17-.18.33-.26.5a2,2,0,0,0-.1.21c-.08.17-.16.34-.23.51l-.11.26c-.06.17-.13.34-.19.52l-.11.32c0,.17-.1.34-.14.51s-.07.27-.1.41-.07.32-.1.48,0,.34-.07.51,0,.29,0,.43a5.15,5.15,0,0,0,0,.55" transform="translate(0 0)"/><path class="cls-30" d="M224.69,100.89V101c0,.13,0,.25,0,.37s0,.48.08.7l.06.28a4.94,4.94,0,0,0,.24.74l.09.19a3.35,3.35,0,0,0,.27.45,4.65,4.65,0,0,0,3.14-.72,12.44,12.44,0,0,0,5.65-9.74,4.8,4.8,0,0,0-.76-2.8,2.78,2.78,0,0,0-.77-.05h-.2a4.08,4.08,0,0,0-.65.12l-.25.07-.56.21-.29.13-.42.23,0,0-.32.19-.37.26-.34.25-.29.25-.34.31a2.39,2.39,0,0,0-.23.22c-.12.11-.23.23-.34.35l-.18.2c-.12.13-.23.26-.34.4l-.14.18-.33.43-.12.17-.3.46c0,.05-.07.11-.11.17s-.19.32-.28.48a1.62,1.62,0,0,0-.1.18c-.09.17-.18.33-.26.5a2,2,0,0,0-.1.21c-.08.17-.16.34-.23.51l-.11.26c-.06.17-.13.34-.19.52l-.11.32c0,.17-.1.34-.14.51s-.07.27-.1.41-.07.32-.1.48,0,.34-.07.51,0,.29,0,.43a5.15,5.15,0,0,0,0,.55" transform="translate(0 0)"/><path class="cls-31" d="M231,95.13c.25-.13.51-.27.77-.43l2.26-1.44c.09-.05.16-.05.16,0a.22.22,0,0,1-.11.16l-2.34,1.73a7.41,7.41,0,0,1-1.67.94l-1.5.58v-.39Z" transform="translate(0 0)"/><path class="cls-31" d="M225,98.51l.38-.24c.21-.13.43-.26.64-.37l.12-.06.21-.09,1-.47.36-.17.13-.06.22-.11.12-.06.09,0,.05,0,.05,0h0l0,0h.14l0,0h0v-.39h-.19l0,0-.06,0-.08,0-.12,0-.22.08-.13.06-.35.13-.31.12c-.22.09-.44.19-.67.31a3.37,3.37,0,0,0-.32.19,7.15,7.15,0,0,0-.68.44l-.26.19c0,.17-.1.34-.14.51" transform="translate(0 0)"/><path class="cls-32" d="M231,94.66c.25-.17.51-.37.76-.58L234,92.23c.08-.07.16-.09.17,0a.22.22,0,0,1-.1.18l-2.24,2.13a9.28,9.28,0,0,1-1.65,1.26l-1.52.9-.06-.35Z" transform="translate(0 0)"/><path class="cls-32" d="M224.82,99.4l.61-.51c.21-.18.43-.34.64-.49l.12-.09.21-.14,1-.66.36-.24.13-.09.22-.15.12-.09.09,0,.05,0,0,0,0,0,0,0,0,0,0,0h.06l0,0h0l0,0,0-.17h0l0-.17h-.06l0,0h0l0,0,0,0-.05,0,0,0-.09,0-.12.08-.22.12-.13.08-.36.21-.31.19c-.22.13-.45.28-.67.44l-.33.25c-.22.18-.43.37-.65.57l-.47.45c0,.16-.07.32-.1.48" transform="translate(0 0)"/><path class="cls-31" d="M230.89,94.25c.24-.22.49-.46.72-.71l2.09-2.22c.08-.08.17-.11.18-.07s0,.11-.07.18l-2.09,2.48a10.89,10.89,0,0,1-1.58,1.54l-1.49,1.19-.12-.31Z" transform="translate(0 0)"/><path class="cls-31" d="M224.71,100.34l.86-.91c.2-.21.4-.41.61-.6l.12-.11.2-.17.94-.84.35-.31.12-.11.21-.19.13-.11.07-.07.06,0,.05,0,0,0,0,0,0,0,0,0,0,0h0l0,0h0v0l0,0h0l-.06-.16h0l-.06-.15h0l0,0h0l0,0h0l0,0,0,0,0,0,0,0-.06,0-.08.07-.12.1-.21.17-.13.1-.36.28-.3.24a6.8,6.8,0,0,0-.65.57c-.11.1-.22.2-.32.31s-.41.43-.61.66l-.71.85c0,.15,0,.29,0,.43" transform="translate(0 0)"/><path class="cls-32" d="M230.71,93.9c.23-.25.46-.53.68-.81l1.9-2.51c.07-.1.16-.15.18-.11s0,.1-.05.18l-1.87,2.74a12.21,12.21,0,0,1-1.45,1.78l-1.42,1.44-.17-.25Z" transform="translate(0 0)"/><path class="cls-32" d="M224.69,101c0,.13,0,.25,0,.37l1.1-1.45c.18-.24.37-.47.56-.69l.11-.12.19-.21.88-1,.33-.37.12-.13.19-.22.12-.13.07-.08.06-.06,0,0,0,0,0,0,0,0,0,0,0,0v0l0,0v0h0l0,0h0l-.09-.13h0l-.08-.12,0,0h0l0,0,0,0,0,0,0,0,0,0,0,0-.05,0-.05,0-.08.08-.11.12-.21.21-.12.12-.34.34-.28.29c-.21.21-.42.44-.62.67l-.29.36c-.19.24-.38.49-.55.75Z" transform="translate(0 0)"/><path class="cls-31" d="M228.48,96.4h0l.11.08h0l.11.09h0l0,0v0l0,0,0,0,0,0,0,0,0,0,0,0,.05-.06.07-.09.1-.13h0l.19-.24.1-.12.33-.41h0l.26-.33c.18-.24.37-.48.54-.74l.27-.41h0q.26-.41.48-.81l1.4-2.59h-.2l-1.43,2.35c-.15.26-.32.51-.49.76a.71.71,0,0,0-.1.14l-.19.25L229.51,95l-.31.44-.09.12-.18.25-.11.14-.06.09,0,.07,0,0,0,0,0,0,0,0,0,0,0,0v0l0,0v0h0l0,0Z" transform="translate(0 0)"/><path class="cls-31" d="M224.78,102l.06.28,1.27-2.08c.16-.26.33-.51.5-.76l.1-.14.17-.23.79-1.11.3-.41.11-.14.18-.25.1-.14.07-.1,0-.06,0,0,0,0,0,0,0,0v0l0,0v0l0,0v0l0,0,0,0-.11-.08h0l-.11-.08h0v0h0v0l0,0,0,0,0,0,0,0,0,0,0,0-.05.07-.07.09-.11.13-.19.24-.11.14-.31.39-.26.33c-.2.24-.38.5-.56.76s-.18.26-.26.39-.33.54-.48.81Z" transform="translate(0 0)"/><path class="cls-32" d="M228.46,96.43h0l.13,0h0l.13.06v0h0v0h0l0,0v0l0,0,0,0,0,0,0,0,0-.06,0-.07.06-.09.09-.15.17-.26h0l.08-.13.29-.45h0l.23-.35c.17-.26.33-.53.47-.8l.24-.44c.14-.28.27-.57.38-.85l.89-2.14-.24.07-.92,1.92c-.14.28-.27.55-.42.81l-.09.15-.16.27-.67,1.17-.27.46-.08.14-.16.27-.08.15-.06.1,0,.07,0,.06,0,0,0,0,0,0,0,0v.06l0,0h0Z" transform="translate(0 0)"/><path class="cls-32" d="M225.08,103.05l.09.19,1.33-2.78c.13-.27.27-.54.42-.8a1.09,1.09,0,0,1,.08-.15l.15-.25.68-1.19.26-.45.09-.15.16-.27.09-.15,0-.1.05-.07,0-.06,0,0,0,0v0l0,0v0l0,0v-.07l0,0h0l-.13,0h0l-.13-.06v.06l0,0v0l0,0,0,0,0,0,0,0,0,0,0,.07-.07.1-.09.15-.17.26-.1.15-.27.44-.23.35c-.17.27-.33.54-.48.82s-.15.28-.22.42-.27.56-.39.85Z" transform="translate(0 0)"/><path class="cls-31" d="M228.44,96.47h.15l.15,0v0h0v0l0,0h0v0l0,0v0l0,0,0,0,0-.06,0-.07,0-.11.08-.15.14-.28h0l.07-.14.24-.48.19-.38c.14-.27.27-.55.39-.83l.18-.45c.11-.29.2-.57.28-.86l.49-1.66-.28.13-.53,1.47c-.09.27-.2.55-.32.82,0,.06,0,.11-.07.16l-.13.28-.55,1.22-.21.48-.07.15-.12.28-.08.16,0,.1,0,.08,0,0,0,0,0,0v0l0,0v.11h0Z" transform="translate(0 0)"/><path class="cls-31" d="M227.34,99.6c-.14.32-.27.65-.39,1l-1,2.91c0,.11-.11.21-.15.2s0-.06,0-.15l.89-3a13,13,0,0,1,.85-2.15l1-1.9.3,0Z" transform="translate(0 0)"/><path class="cls-32" d="M228.43,96.51l.16,0h0l.16,0v0h0v0h0v-.09l0,0v0l0-.05,0,0,0-.08,0-.11.06-.16.11-.28,0-.14.19-.49.15-.39c.1-.28.2-.56.28-.85s.09-.3.13-.44.13-.57.18-.84l.2-1.2-.32.19-.24,1a8.3,8.3,0,0,1-.22.82,1.42,1.42,0,0,0,0,.16l-.09.28L229,94.9l-.16.48-.05.15-.09.28,0,.16,0,.11,0,.07,0,.06,0,.05v.21h0Z" transform="translate(0 0)"/><path class="cls-32" d="M227.73,99.59c-.11.33-.2.66-.28,1l-.67,2.87c0,.11-.09.21-.14.22s0,0,0-.13l.5-2.94a11,11,0,0,1,.59-2.13l.74-1.95.32-.05Z" transform="translate(0 0)"/><path class="cls-31" d="M228.42,96.55l.17-.07h0l.17-.06h0v-.23l0-.06,0-.08,0-.1,0-.16.07-.28,0-.14.12-.49.1-.38a8.39,8.39,0,0,0,.18-.84c0-.14.05-.28.07-.43s.05-.54.06-.8l0-.79-.34.25-.06.65c0,.26-.07.53-.12.8l0,.15-.06.28h0L228.75,95l-.1.47,0,.15-.06.27,0,.16,0,.1,0,.08v.29h0v.06Z" transform="translate(0 0)"/><path class="cls-31" d="M228.13,99.49c-.06.32-.11.64-.14,1l-.29,2.74a.29.29,0,0,1-.11.23s-.07,0-.07-.11l.09-2.75a9.7,9.7,0,0,1,.31-2.07l.5-1.93.34-.13Z" transform="translate(0 0)"/><path class="cls-32" d="M228.42,96.58h0l.17-.1h0l.17-.09v-.47l0-.15,0-.27,0-.14.06-.46,0-.38c0-.26.06-.53.07-.79v-.4a5.58,5.58,0,0,0-.05-.73l-.06-.47-.34.31v.35c0,.24,0,.49,0,.74,0,0,0,.1,0,.15l0,.26-.08,1.14,0,.45,0,.14v.88h0Z" transform="translate(0 0)"/><path class="cls-32" d="M228.55,99.29c0,.31,0,.61,0,.89l.11,2.54a.25.25,0,0,1-.09.23s-.07,0-.08-.08l-.33-2.5a7.83,7.83,0,0,1,0-1.93l.25-1.86.34-.19Z" transform="translate(0 0)"/><path class="cls-31" d="M228.06,93l0,.14a4.92,4.92,0,0,1,.1.67c0,.05,0,.09,0,.13l0,.24.08,1,0,.41,0,.13V96l0,.14v.37h0v.08l.17-.13h0l.17-.13h0V94.62c0-.25,0-.49,0-.73l-.06-.36a4.42,4.42,0,0,0-.17-.65l-.07-.22c-.12.11-.23.23-.34.35" transform="translate(0 0)"/><path class="cls-31" d="M229,99a5.27,5.27,0,0,0,.12.81l.5,2.24a.27.27,0,0,1-.06.24s-.08,0-.1-.06l-.73-2.16a5.76,5.76,0,0,1-.27-1.73l0-1.73.34-.27Z" transform="translate(0 0)"/><path class="cls-32" d="M227.54,93.61h0a4.79,4.79,0,0,1,.21.57.56.56,0,0,1,0,.12l0,.2.25.93.1.36,0,.11.06.21,0,.12,0,.08,0,.06v.19h0v.07l.16-.16h0l.16-.16h0V96l0-.08,0-.13,0-.22,0-.12-.07-.39-.06-.31a4.28,4.28,0,0,0-.16-.64,2.83,2.83,0,0,0-.11-.31,4.58,4.58,0,0,0-.28-.54l0-.07c-.12.13-.23.26-.34.4" transform="translate(0 0)"/><path class="cls-32" d="M229.39,98.66a3.76,3.76,0,0,0,.25.69l.88,1.89a.21.21,0,0,1,0,.22.07.07,0,0,1-.12,0l-1.11-1.75a4.25,4.25,0,0,1-.55-1.5l-.28-1.55.32-.32Z" transform="translate(0 0)"/><path class="cls-31" d="M227.08,94.22a4.38,4.38,0,0,1,.28.42l0,.09.09.17.41.77.16.29.05.1.09.18.06.1,0,.06,0,0v0l0,0v0h0v0h0v.07l.15-.18h0l.15-.18h0v0h0v-.09l0,0v0l0,0,0-.07-.05-.11-.07-.19-.05-.1-.13-.33-.1-.26a3.45,3.45,0,0,0-.28-.54,2.2,2.2,0,0,0-.17-.25,2.77,2.77,0,0,0-.36-.4c-.11.14-.22.28-.32.43" transform="translate(0 0)"/><path class="cls-31" d="M229.77,98.24a3.77,3.77,0,0,0,.37.55l1.23,1.48a.18.18,0,0,1,0,.21.09.09,0,0,1-.13,0l-1.45-1.3A3.13,3.13,0,0,1,229,98l-.54-1.32.3-.37Z" transform="translate(0 0)"/><path class="cls-32" d="M226.65,94.85a3,3,0,0,1,.34.28l.07.08.12.12.56.59.21.23.07.07.13.14.07.07.05,0,0,0,0,0,0,0v0h0v0h0l0,0,.13-.2h0l.13-.2h0v0l0,0v0l0,0,0,0,0-.06-.06-.09-.11-.15-.07-.08-.19-.26-.15-.21a3,3,0,0,0-.38-.42l-.21-.17a2.42,2.42,0,0,0-.4-.25c-.11.15-.21.3-.31.46" transform="translate(0 0)"/><path class="cls-32" d="M230.12,97.76a2.37,2.37,0,0,0,.49.41l1.54,1a.13.13,0,0,1,0,.18.11.11,0,0,1-.14,0l-1.75-.81a2.85,2.85,0,0,1-1.06-.87l-.77-1,.26-.41Z" transform="translate(0 0)"/><path class="cls-31" d="M226.26,95.5a3,3,0,0,1,.41.17l.09,0,.14.08.69.39.26.15.09,0,.16.09.08,0,.06,0,0,0,0,0h.16l.11-.21h0l.11-.21h-.08l0,0h0l0,0,0,0,0,0-.08-.06-.15-.11-.08-.06-.24-.18-.2-.15a2.69,2.69,0,0,0-.46-.28l-.26-.11a2.12,2.12,0,0,0-.45-.11c-.1.16-.19.32-.28.48" transform="translate(0 0)"/><path class="cls-31" d="M230.43,97.25a2.29,2.29,0,0,0,.58.24l1.8.53a.11.11,0,0,1,.07.16.14.14,0,0,1-.14.07l-2-.28a2.81,2.81,0,0,1-1.27-.52l-1-.75.22-.43Z" transform="translate(0 0)"/><path class="cls-32" d="M225.9,96.18a4,4,0,0,1,.5,0l.11,0,.17,0,.79.18.3.07.11,0,.18,0,.1,0h.35l.08-.22h0l.09-.22h-.19l0,0-.06,0-.1,0-.17-.06-.1,0-.28-.11-.24-.08a3.05,3.05,0,0,0-.54-.14l-.29,0a2.9,2.9,0,0,0-.51,0c-.09.17-.18.33-.26.5" transform="translate(0 0)"/><path class="cls-32" d="M230.68,96.71a2.75,2.75,0,0,0,.65.08l2,0a.1.1,0,0,1,.1.13.19.19,0,0,1-.15.1l-2.18.24a3.1,3.1,0,0,1-1.44-.15l-1.17-.43.17-.44Z" transform="translate(0 0)"/><path class="cls-31" d="M225.57,96.9h0a3.11,3.11,0,0,1,.6-.09h.3l.89,0h1.13l.06-.21h0l.06-.21h-.44l-.19,0h-.11l-.32,0h-.26a3.12,3.12,0,0,0-.61,0l-.31,0a3.39,3.39,0,0,0-.61.15c-.08.17-.16.34-.23.51" transform="translate(0 0)"/><path class="cls-31" d="M230.86,96.17a3.77,3.77,0,0,0,.72-.1l2.16-.48c.09,0,.14,0,.12.09a.24.24,0,0,1-.13.13l-2.31.76a4,4,0,0,1-1.56.22l-1.33-.09.12-.43Z" transform="translate(0 0)"/><path class="cls-32" d="M225.27,97.68l.18-.08a6.35,6.35,0,0,1,.65-.23l.11,0,.2,0,.94-.26.35-.09.13,0,.21-.06.12,0,.08,0h.32l0-.21h0l0-.21h-.28l-.07,0-.12,0-.21,0-.12,0-.35.06-.28,0a5.68,5.68,0,0,0-.65.17,2.19,2.19,0,0,0-.33.12,6.42,6.42,0,0,0-.66.3l-.09,0c-.06.17-.13.34-.19.52" transform="translate(0 0)"/><path class="cls-32" d="M231,95.64a6.19,6.19,0,0,0,.75-.27l2.25-1c.09,0,.15,0,.14,0s-.06.11-.12.14l-2.36,1.26a5.52,5.52,0,0,1-1.65.6l-1.43.25.06-.43Z" transform="translate(0 0)"/><path class="cls-33" d="M226.37,97.77c0,1.4,1,2,2.21,1.26a4.85,4.85,0,0,0,2.22-3.82c0-1.4-1-2-2.22-1.26a4.89,4.89,0,0,0-2.21,3.82" transform="translate(0 0)"/><path class="cls-34" d="M227.7,97c0,.56.39.79.88.51a2,2,0,0,0,.89-1.53c0-.56-.4-.79-.89-.5A1.93,1.93,0,0,0,227.7,97" transform="translate(0 0)"/><path class="cls-22" d="M227.23,99.28a1.41,1.41,0,0,1-.85-1.5A4.86,4.86,0,0,1,228.59,94c.8-.46,1.49-.38,1.88.12h0l0,0a1.18,1.18,0,0,1,.11.19,4.07,4.07,0,0,1,.53,2.63,4.73,4.73,0,0,0-.72,1.29,5.7,5.7,0,0,1-2.57,1.11,1.62,1.62,0,0,1-.44,0h-.05a.34.34,0,0,1-.12,0" transform="translate(0 0)"/><path class="cls-22" d="M229.36,97.82c0,.56.4.79.89.5a1.93,1.93,0,0,0,.88-1.52c0-.56-.39-.79-.88-.51a2,2,0,0,0-.89,1.53" transform="translate(0 0)"/><path class="cls-15" d="M228.66,96.13c.21.59.72,1,1.14.81s.59-.74.38-1.34-.71-1-1.13-.81-.59.74-.39,1.34" transform="translate(0 0)"/><path class="cls-22" d="M207.11,78.88s10.08,2.36,13.22,3.83a65.58,65.58,0,0,1,8.58,5.67h0s1.18-.65,1.37-.73-1.6-4.84-3.33-5.55S212.57,76.86,211.42,77a17,17,0,0,0-4.09,1.79h0l-.21.12" transform="translate(0 0)"/><path class="cls-28" d="M207.11,78.88s10.08,2.36,13.22,3.83a65.58,65.58,0,0,1,8.58,5.67h0c.19-.11-1.61-4.84-3.33-5.55S211.2,77.59,210,77.7a10.73,10.73,0,0,0-2.71,1.06h0l-.21.12" transform="translate(0 0)"/><path class="cls-19" d="M106.92,144a10.81,10.81,0,0,1,4.9-8.46,4,4,0,0,1,2.75-.61l2.64.57-.72,1.27a5,5,0,0,1,.23,1.57,10.82,10.82,0,0,1-4.9,8.45,5,5,0,0,1-1.39.57l-.79,1.39-1.86-2.06a3.87,3.87,0,0,1-.86-2.69" transform="translate(0 0)"/><path class="cls-20" d="M108.7,145.79a12.17,12.17,0,0,1,5.52-9.53,4.29,4.29,0,0,1,3.35-.64h0l3,.83L119.6,138a6,6,0,0,1,.15,1.39,12.18,12.18,0,0,1-5.53,9.53,5.84,5.84,0,0,1-1.36.59l-.89,1.53L109.8,149a4.26,4.26,0,0,1-1.1-3.16" transform="translate(0 0)"/><path class="cls-21" d="M112.13,151.25a4.89,4.89,0,0,1-1-3.34,13.61,13.61,0,0,1,6.17-10.65,5,5,0,0,1,3.49-.77h0l.19,0,8.54,2.13L118.24,157.6l-5.93-6.16a1.07,1.07,0,0,1-.18-.19Z" transform="translate(0 0)"/><path class="cls-21" d="M116.83,153.24c0-5,3.54-11.13,7.91-13.65,2.2-1.27,4.19-1.39,5.62-.55a19.55,19.55,0,0,1,8.76,5.78c3.64,4-5.64,20.12-10.62,18.33a33.81,33.81,0,0,1-9.46-4.89h0c-1.37-.85-2.2-2.58-2.2-5" transform="translate(0 0)"/><path class="cls-22" d="M125.44,157.85a16.61,16.61,0,0,1,7.54-13c2.09-1.21,4-1.32,5.36-.53h0l1.23.71-.15.26a6.28,6.28,0,0,1,1.09,3.86,16.59,16.59,0,0,1-7.53,13,6.32,6.32,0,0,1-4,1l-.14.24-1.12-.65-.15-.09h0c-1.3-.81-2.1-2.45-2.1-4.77" transform="translate(0 0)"/><path class="cls-22" d="M106.92,144a5.27,5.27,0,0,0,0,.7,4.35,4.35,0,0,0,.18.86,3.18,3.18,0,0,0,.64,1.13l1.86,2.06h0c0,.05.1.11.16.16l2.17,2.11h0a1.46,1.46,0,0,0,.16.19h0a1.07,1.07,0,0,0,.18.19l5.93,6.16h0a4.08,4.08,0,0,0,.79.65h0a33.35,33.35,0,0,0,9.32,4.83l0,0,.43.25.07-.12a3,3,0,0,0,1.39-.12l.19,0A4.87,4.87,0,0,0,131,163l-2-8.08a36.12,36.12,0,0,1-11.72-5.1,65,65,0,0,1-9.89-8.56,9.12,9.12,0,0,0-.32,1.1,7.7,7.7,0,0,0-.19,1.7" transform="translate(0 0)"/><path class="cls-13" d="M106.92,144a5.27,5.27,0,0,0,0,.7,4.35,4.35,0,0,0,.18.86,3.18,3.18,0,0,0,.64,1.13l1.86,2.06h0c0,.05.1.11.16.16l2.17,2.11h0a1.46,1.46,0,0,0,.16.19h0a1.07,1.07,0,0,0,.18.19l5.93,6.16h0a4.08,4.08,0,0,0,.79.65h0a33.35,33.35,0,0,0,9.32,4.83l0,0,.43.25.07-.12a3,3,0,0,0,1.39-.12l.19,0a52.49,52.49,0,0,0-1.38-5.25,32.84,32.84,0,0,1-12.18-6,101,101,0,0,1-9.81-9.48,7.7,7.7,0,0,0-.19,1.7" transform="translate(0 0)"/><path class="cls-23" d="M107,144.74a4.35,4.35,0,0,0,.18.86,3.18,3.18,0,0,0,.64,1.13l1.86,2.06h0c0,.05.1.11.16.16l2.17,2.11h0a1.46,1.46,0,0,0,.16.19h0a1.07,1.07,0,0,0,.18.19l5.93,6.16h0a4.08,4.08,0,0,0,.79.65h0a33.35,33.35,0,0,0,9.32,4.83l0,0v-1.67s-7.1-2.1-11.18-6.16c-3.49-3.47-8.8-9-10.25-10.55" transform="translate(0 0)"/><g class="cls-24"><g class="cls-35"><path class="cls-15" d="M109.31,138.36s2.5,1.42,4.28,2.39,4.74,2.1,6.93,3.07,8.12,4.7,8.12,4.7a15.77,15.77,0,0,1,1.82-2,39.57,39.57,0,0,0-8-5.21c-1.35-.64-12-4.39-12-4.39s-1.13,1.18-1.15,1.46" transform="translate(0 0)"/></g></g><path class="cls-13" d="M112.87,135.11l14.49,3.48a20.08,20.08,0,0,1,10.38,5.94,26.57,26.57,0,0,0,2.44,2.28,4.8,4.8,0,0,0-.62-1.33l-.12-.23.13-.22-.53-.3a19.47,19.47,0,0,0-8.68-5.69h0a3.74,3.74,0,0,0-.87-.37h0l-.19,0L121,136.54l-.19,0h0l-.23,0h0l-3-.83-.36-.08h0l-2.64-.57a3.28,3.28,0,0,0-1.7.14" transform="translate(0 0)"/><path class="cls-26" d="M126.68,158.56c0,4.78,3.38,6.7,7.54,4.3a16.6,16.6,0,0,0,7.53-13c0-4.77-3.37-6.69-7.53-4.29a16.6,16.6,0,0,0-7.54,13" transform="translate(0 0)"/><path class="cls-27" d="M127.69,158.59c0,4.47,3.16,6.27,7.05,4a15.54,15.54,0,0,0,7-12.17c0-4.47-3.15-6.27-7-4a15.56,15.56,0,0,0-7.05,12.17" transform="translate(0 0)"/><path class="cls-28" d="M128.5,158.12c0,3.95,2.79,5.54,6.24,3.55A13.73,13.73,0,0,0,141,150.91c0-3.95-2.79-5.54-6.24-3.55a13.71,13.71,0,0,0-6.24,10.76" transform="translate(0 0)"/><path class="cls-29" d="M129.09,157.78v.07c0,.12,0,.24,0,.36a5.31,5.31,0,0,0,.08.71l.06.28a4.27,4.27,0,0,0,.24.74l.09.18a2.93,2.93,0,0,0,.27.46c1,1.37,2.8,1.62,4.89.41a12.44,12.44,0,0,0,5.65-9.74c0-2.24-1-3.64-2.51-3.93a3.21,3.21,0,0,0-.77-.06l-.2,0a3.89,3.89,0,0,0-.65.12l-.25.07a3.52,3.52,0,0,0-.56.21l-.29.13a4.36,4.36,0,0,0-.42.23l-.05,0-.31.2-.38.26-.33.25-.3.25-.34.3-.23.23-.34.35-.18.2-.33.39-.15.19-.32.43-.12.17-.31.45-.1.17-.29.49-.1.18c-.09.16-.17.33-.26.5a2,2,0,0,1-.1.21l-.23.51c0,.09-.07.17-.1.26s-.13.34-.19.51-.07.22-.11.33l-.15.51c0,.13-.07.27-.1.41l-.09.48c0,.17-.06.34-.08.51s0,.29,0,.43,0,.37,0,.55" transform="translate(0 0)"/><path class="cls-30" d="M129.09,157.78v.07c0,.12,0,.24,0,.36a5.31,5.31,0,0,0,.08.71l.06.28a4.27,4.27,0,0,0,.24.74l.09.18a2.93,2.93,0,0,0,.27.46,4.65,4.65,0,0,0,3.14-.72,12.43,12.43,0,0,0,5.64-9.74,4.77,4.77,0,0,0-.75-2.8,3.21,3.21,0,0,0-.77-.06l-.2,0a3.89,3.89,0,0,0-.65.12l-.25.07a3.52,3.52,0,0,0-.56.21l-.29.13a4.36,4.36,0,0,0-.42.23l-.05,0-.31.2-.38.26-.33.25-.3.25-.34.3-.23.23-.34.35-.18.2-.33.39-.15.19-.32.43-.12.17-.31.45-.1.17-.29.49-.1.18c-.09.16-.17.33-.26.5a2,2,0,0,1-.1.21l-.23.51c0,.09-.07.17-.1.26s-.13.34-.19.51-.07.22-.11.33l-.15.51c0,.13-.07.27-.1.41l-.09.48c0,.17-.06.34-.08.51s0,.29,0,.43,0,.37,0,.55" transform="translate(0 0)"/><path class="cls-31" d="M135.43,152a5.85,5.85,0,0,0,.76-.43l2.27-1.43c.09-.06.16-.06.16,0a.28.28,0,0,1-.11.17L136.17,152a7.25,7.25,0,0,1-1.67.94l-1.5.59v-.4Z" transform="translate(0 0)"/><path class="cls-31" d="M129.42,155.4l.38-.24a7.16,7.16,0,0,1,.65-.37l.12-.06.2-.1,1-.46.37-.18.13-.06.21-.1.13-.06.08,0,.06,0,0,0,0,0h.06l0,0h.05l0,0h0v-.4h-.16l0,0h-.05l0,0-.08,0-.13.05-.21.08-.13.05-.36.14-.3.12a5,5,0,0,0-.67.31l-.33.18c-.22.14-.45.29-.67.45l-.26.19-.15.51" transform="translate(0 0)"/><path class="cls-32" d="M135.4,151.54a9.29,9.29,0,0,0,.75-.57l2.22-1.86c.08-.07.16-.08.17,0a.24.24,0,0,1-.1.18l-2.25,2.13a9.33,9.33,0,0,1-1.64,1.26l-1.52.9-.06-.36Z" transform="translate(0 0)"/><path class="cls-32" d="M129.23,156.29l.61-.52c.21-.17.42-.34.64-.49l.12-.08.2-.14,1-.66.36-.25.13-.09.22-.14.12-.09.08-.06.06,0,0,0,0,0,0,0,0,0h0v0h0l0,0h0l0,0,0-.18h0l0-.18h-.1l0,0,0,0,0,0-.05,0-.06,0-.08,0-.12.07-.22.13-.13.08-.36.21-.31.18a6.54,6.54,0,0,0-.67.45l-.33.25a8.39,8.39,0,0,0-.65.56l-.48.46-.09.48" transform="translate(0 0)"/><path class="cls-31" d="M135.29,151.13c.25-.22.49-.45.73-.7l2.09-2.22c.08-.08.16-.12.18-.07a.26.26,0,0,1-.08.18l-2.08,2.47a11.5,11.5,0,0,1-1.58,1.55l-1.49,1.18-.12-.3Z" transform="translate(0 0)"/><path class="cls-31" d="M129.11,157.23l.87-.92c.2-.21.4-.41.61-.6l.11-.1.2-.18.94-.83.36-.31.12-.11.21-.19.12-.11.08-.07.06-.05,0,0,0,0,0,0,0,0h0l0,0,0,0h0l0,0h0l0,0h0l-.06-.15h0l-.06-.15h0l0,0h0l0,0,0,0,0,0,0,0,0,0-.06,0-.08.06-.12.1-.22.17-.13.1-.36.29-.29.23-.66.57-.31.31c-.21.21-.41.44-.61.67l-.72.85c0,.14,0,.29,0,.43" transform="translate(0 0)"/><path class="cls-32" d="M135.12,150.79c.23-.26.46-.53.67-.81l1.91-2.52c.07-.09.15-.14.18-.11s0,.11-.06.19L136,150.28a13.45,13.45,0,0,1-1.46,1.78l-1.42,1.43-.17-.24Z" transform="translate(0 0)"/><path class="cls-32" d="M129.09,157.85c0,.12,0,.24,0,.36l1.09-1.44c.19-.24.37-.47.57-.69a.69.69,0,0,1,.11-.13l.18-.21.88-1,.34-.37.11-.13.2-.22.11-.13.08-.08.05-.06,0,0,0,0,0,0,0,0,0,0,0,0,0,0h0l0,0v0h0l0,0h0l-.08-.12h0l-.09-.12h0l0,0v0l0,0,0,0,0,0,0,0,0,0-.05.06-.08.08-.12.11-.2.21-.12.12-.34.35-.29.28c-.21.22-.41.44-.61.68s-.2.23-.29.35-.38.5-.56.75Z" transform="translate(0 0)"/><path class="cls-31" d="M132.89,153.28h0l.11.09h0l.11.09h0v0h0l0,0v0l0,0,0,0,0,0,0,0,0,0,0-.05.05-.06.07-.09.11-.14h0l.19-.23.09-.12.33-.42h0l.26-.32c.19-.24.37-.49.55-.74l.27-.41h0q.26-.39.48-.81l1.4-2.59-.2,0-1.43,2.35c-.16.25-.32.51-.5.75a.71.71,0,0,1-.1.14l-.18.26-.78,1.08-.32.43-.09.13-.18.25-.1.14-.07.09,0,.07,0,.05,0,0,0,0,0,0v0l0,0,0,0v0l0,0h0l0,0Z" transform="translate(0 0)"/><path class="cls-31" d="M129.19,158.92l.06.28,1.27-2.08c.15-.26.32-.52.49-.76l.1-.14.17-.24.8-1.1.3-.41.1-.15.18-.25.1-.14.07-.09,0-.07,0-.05,0,0,0,0,0,0,0,0,0,0v0l0,0v0h0l0,0-.11-.09h0l-.11-.09v0h0v0l0,0,0,0,0,0,0,0,0,0,0,0-.05.06-.07.09-.1.14-.19.23-.11.14-.32.4-.26.33c-.19.24-.38.49-.56.75s-.17.26-.25.4-.33.53-.48.81Z" transform="translate(0 0)"/><path class="cls-32" d="M132.87,153.32h0l.13.05h0l.13,0h0v0h0v0l0,0v0l0,0,0,0,0,0,0-.05,0-.05,0-.07.07-.1.09-.15.17-.25h0l.08-.13.29-.45h0l.23-.36c.16-.26.32-.52.47-.8s.16-.29.23-.44.27-.56.39-.84l.89-2.14-.25.07-.92,1.92c-.13.27-.27.54-.42.8a.8.8,0,0,1-.08.16l-.16.27-.68,1.17-.26.46-.08.14-.16.26-.09.16-.06.1,0,.07,0,.05,0,.05,0,0,0,0,0,0v.05l0,0v0h0Z" transform="translate(0 0)"/><path class="cls-32" d="M129.49,159.94l.09.18,1.32-2.77c.13-.27.27-.54.42-.8l.09-.16.14-.25.69-1.18.26-.45.09-.16.15-.26.09-.16.06-.1,0-.07,0,0,0-.05,0,0,0,0v0l0,0v0l0,0v0l0,0-.13,0h0l-.13-.05v0h0v0l0,0v0l0,0,0,0,0,0,0,0-.05.07-.06.1-.09.15-.17.26-.1.15-.28.43-.22.36c-.17.26-.34.54-.49.82l-.22.42c-.14.28-.27.56-.38.84Z" transform="translate(0 0)"/><path class="cls-31" d="M132.85,153.36h.31v0l0,0h0v-.05l0,0,0,0,0-.05,0,0,0-.08.06-.1.08-.16.13-.27.07-.14.25-.48.19-.38a8.84,8.84,0,0,0,.38-.83,3.66,3.66,0,0,0,.18-.46c.11-.28.21-.57.29-.85l.49-1.66-.29.13-.52,1.47c-.1.27-.21.55-.33.82l-.06.16-.13.28-.55,1.22-.22.48-.06.15-.13.28-.07.15-.05.11,0,.07,0,.06,0,.05v0l0,0v.14h0Z" transform="translate(0 0)"/><path class="cls-31" d="M131.75,156.48c-.15.33-.28.66-.4,1l-1,2.91c0,.11-.11.2-.16.2s0-.07,0-.15l.89-3a12.07,12.07,0,0,1,.85-2.14l1-1.9.3,0Z" transform="translate(0 0)"/><path class="cls-32" d="M132.84,153.4l.16,0h0l.16,0v0h0v-.15l0,0v0l0-.06,0-.07,0-.11.07-.16.1-.28.06-.14.18-.49.15-.39c.11-.28.21-.57.29-.85s.09-.3.12-.45a6.3,6.3,0,0,0,.18-.84l.2-1.2-.31.2-.24,1c-.06.27-.14.54-.23.82a1.42,1.42,0,0,1,0,.16l-.09.28-.4,1.23-.16.49-.05.15-.09.28-.06.16,0,.1,0,.08v.06l0,0v.22h0Z" transform="translate(0 0)"/><path class="cls-32" d="M132.13,156.47a9.1,9.1,0,0,0-.27,1l-.67,2.87c0,.11-.09.21-.14.22s-.06-.05,0-.14l.49-2.93a11.81,11.81,0,0,1,.59-2.14l.75-1.94.32-.05Z" transform="translate(0 0)"/><path class="cls-31" d="M132.83,153.43l.17-.06h0l.17-.06h0v-.23h0l0-.06v-.07l0-.1,0-.16.08-.28,0-.15.13-.48.1-.39c.07-.27.13-.55.18-.83s.05-.29.06-.43a7.41,7.41,0,0,0,.07-.8l0-.79-.33.25-.07.65a7.49,7.49,0,0,1-.11.79l0,.16-.06.27h0l-.25,1.21-.09.48,0,.14-.06.28,0,.16,0,.1,0,.07v.35Z" transform="translate(0 0)"/><path class="cls-31" d="M132.54,156.37a8.13,8.13,0,0,0-.15.95l-.28,2.75a.32.32,0,0,1-.12.23s-.06,0-.06-.11l.09-2.76a9,9,0,0,1,.31-2.06l.5-1.94.34-.12Z" transform="translate(0 0)"/><path class="cls-32" d="M132.83,153.47h0l.17-.1h0l.17-.1h0v-.45l0-.16,0-.26,0-.14.06-.47,0-.37c0-.27.05-.53.06-.8s0-.27,0-.4,0-.5-.05-.73l-.07-.47-.34.31,0,.35q0,.36,0,.75h0a.61.61,0,0,0,0,.14l0,.26-.09,1.15,0,.45v.14l0,.26v.61h0Z" transform="translate(0 0)"/><path class="cls-32" d="M133,156.18a6.63,6.63,0,0,0,0,.89l.11,2.53a.31.31,0,0,1-.09.24s-.08,0-.09-.08l-.32-2.5a7.37,7.37,0,0,1,0-1.93l.25-1.86.34-.2Z" transform="translate(0 0)"/><path class="cls-31" d="M132.46,149.9l0,.14a4.68,4.68,0,0,1,.11.67.57.57,0,0,1,0,.13l0,.24.09,1,0,.41v.13l0,.24v.56h0v0l.17-.13h0l.17-.13v0h0v-1.7a5.71,5.71,0,0,0-.05-.73,1.93,1.93,0,0,0-.06-.36h0a4.12,4.12,0,0,0-.16-.65l-.08-.22-.34.35" transform="translate(0 0)"/><path class="cls-31" d="M133.38,155.9a5,5,0,0,0,.12.8L134,159a.25.25,0,0,1-.05.23s-.09,0-.11-.05l-.72-2.16a5.57,5.57,0,0,1-.27-1.74l0-1.73.34-.26Z" transform="translate(0 0)"/><path class="cls-32" d="M132,150.49v0a3.54,3.54,0,0,1,.22.57l0,.12.06.2.25.93.1.35,0,.12.06.21,0,.12,0,.08v0l0,.05v.11h0v.06h0v0l.16-.16h0l.16-.16h0v0h0V153l0-.06v-.09l0-.12,0-.23,0-.12-.07-.38-.05-.31c0-.22-.1-.44-.16-.65l-.12-.3a3.4,3.4,0,0,0-.27-.54l-.05-.07-.33.39" transform="translate(0 0)"/><path class="cls-32" d="M133.79,155.55a4.55,4.55,0,0,0,.25.68l.88,1.9a.22.22,0,0,1,0,.22s-.08,0-.12,0l-1.1-1.76a4.19,4.19,0,0,1-.55-1.49l-.28-1.55.32-.32Z" transform="translate(0 0)"/><path class="cls-31" d="M131.48,151.11a2.46,2.46,0,0,1,.28.41l.06.1.09.17.41.77.15.29.06.1.09.17,0,.1,0,.07,0,0,0,0,0,0v.08h0l0,0h0v0l.15-.19h0l.15-.18v0h0v0h0V153l0,0,0,0,0-.07,0-.11-.08-.19,0-.1-.13-.33-.11-.26a3.4,3.4,0,0,0-.27-.54l-.17-.25a2,2,0,0,0-.37-.4l-.32.43" transform="translate(0 0)"/><path class="cls-31" d="M134.18,155.12a3.2,3.2,0,0,0,.37.56l1.23,1.48a.17.17,0,0,1,0,.21.09.09,0,0,1-.13,0l-1.45-1.3a3.32,3.32,0,0,1-.82-1.21l-.53-1.32.3-.36Z" transform="translate(0 0)"/><path class="cls-32" d="M131.05,151.73a2.37,2.37,0,0,1,.34.29l.08.07.12.13.55.59.22.22.07.08.12.13.08.08,0,.05,0,0,0,0,0,0,0,0v0h.06v0h0l.13-.2h0l.13-.2h0v0h0l0,0v0l0,0,0,0,0,0,0-.05-.07-.09-.11-.15-.06-.09-.19-.25-.15-.21a2.57,2.57,0,0,0-.38-.42l-.22-.18a2,2,0,0,0-.4-.24l-.31.45" transform="translate(0 0)"/><path class="cls-32" d="M134.53,154.65a3.72,3.72,0,0,0,.48.41l1.54,1a.14.14,0,0,1,0,.19.1.1,0,0,1-.14,0l-1.75-.8a2.71,2.71,0,0,1-1.06-.88l-.77-1.05.26-.4Z" transform="translate(0 0)"/><path class="cls-31" d="M130.66,152.38a2.54,2.54,0,0,1,.41.18l.09,0,.15.09.69.39.26.15.09.05.15.09.09,0,.06,0,0,0,0,0,0,0h.14l.11-.21h0l.11-.21h-.05l0,0h0l0,0,0,0,0,0-.06,0-.08-.06-.14-.11-.08-.06-.24-.19-.2-.14a2.83,2.83,0,0,0-.47-.29l-.26-.1a3.17,3.17,0,0,0-.44-.12l-.29.48" transform="translate(0 0)"/><path class="cls-31" d="M134.83,154.14a3,3,0,0,0,.58.24l1.81.53a.11.11,0,0,1,.07.16.15.15,0,0,1-.15.07l-2-.29a2.57,2.57,0,0,1-1.26-.52l-1-.75.22-.42Z" transform="translate(0 0)"/><path class="cls-32" d="M130.3,153.07a2.76,2.76,0,0,1,.51.05l.1,0,.17,0,.8.18.3.07.11,0,.18,0,.1,0,.07,0h.27l.09-.22h0l.08-.22h-.14l0,0h0l-.07,0-.09,0-.17-.06-.1,0-.29-.1-.23-.09a3,3,0,0,0-.54-.13,1.53,1.53,0,0,0-.3,0,2.93,2.93,0,0,0-.51,0c-.09.16-.17.33-.26.5" transform="translate(0 0)"/><path class="cls-32" d="M135.08,153.6a2.84,2.84,0,0,0,.66.07l2,0c.07,0,.12.06.09.12a.15.15,0,0,1-.14.1l-2.19.25a3.34,3.34,0,0,1-1.43-.15l-1.18-.43.17-.44Z" transform="translate(0 0)"/><path class="cls-31" d="M130,153.79h0l.61-.09h.3l.88,0,.33,0h.81l.06-.22h0l.06-.22h-.74l-.32,0-.27,0a3.06,3.06,0,0,0-.6,0l-.32,0a5,5,0,0,0-.61.16l-.23.51" transform="translate(0 0)"/><path class="cls-31" d="M135.27,153.06a4.49,4.49,0,0,0,.71-.1l2.17-.48c.08,0,.14,0,.12.09a.19.19,0,0,1-.14.12l-2.3.76a4.07,4.07,0,0,1-1.57.23l-1.32-.09.12-.44Z" transform="translate(0 0)"/><path class="cls-32" d="M129.68,154.56l.18-.08a6.21,6.21,0,0,1,.64-.23l.11,0,.2-.05.95-.26.35-.1.12,0,.21-.06.12,0,.08,0,.06,0H133l0-.21h0l0-.21h-.36l-.12,0-.2,0-.12,0-.35.06-.28,0a5.59,5.59,0,0,0-.65.16l-.33.12a6.68,6.68,0,0,0-.67.31l-.08,0c-.07.18-.13.35-.19.52" transform="translate(0 0)"/><path class="cls-32" d="M135.38,152.52a6.22,6.22,0,0,0,.76-.26l2.25-1c.08,0,.15,0,.14.05a.26.26,0,0,1-.13.15L136,152.74a5.43,5.43,0,0,1-1.64.59l-1.43.25.06-.42Z" transform="translate(0 0)"/><path class="cls-33" d="M130.77,154.66c0,1.4,1,2,2.22,1.26a4.89,4.89,0,0,0,2.21-3.82c0-1.4-1-2-2.21-1.26a4.87,4.87,0,0,0-2.22,3.82" transform="translate(0 0)"/><path class="cls-34" d="M132.1,153.89c0,.56.4.79.89.5a1.93,1.93,0,0,0,.88-1.52c0-.56-.39-.79-.88-.51a2,2,0,0,0-.89,1.53" transform="translate(0 0)"/><path class="cls-22" d="M131.64,156.17a1.43,1.43,0,0,1-.86-1.51,4.89,4.89,0,0,1,2.21-3.82c.8-.46,1.5-.37,1.89.13h0v0a.76.76,0,0,1,.12.19,4.06,4.06,0,0,1,.52,2.63,4.8,4.8,0,0,0-.71,1.29,5.62,5.62,0,0,1-2.58,1.1,1.25,1.25,0,0,1-.43,0h-.06a.35.35,0,0,1-.11,0" transform="translate(0 0)"/><path class="cls-22" d="M133.77,154.71c0,.56.4.78.89.5a2,2,0,0,0,.88-1.52c0-.57-.4-.79-.88-.51a2,2,0,0,0-.89,1.53" transform="translate(0 0)"/><path class="cls-15" d="M133.07,153c.21.59.71.95,1.13.81a1,1,0,0,0,.39-1.34c-.21-.6-.71-1-1.13-.82a1,1,0,0,0-.39,1.35" transform="translate(0 0)"/><path class="cls-22" d="M111.52,135.77s10.08,2.35,13.22,3.82a65.58,65.58,0,0,1,8.58,5.67h0s1.18-.64,1.37-.73-1.61-4.83-3.34-5.55-14.37-5.24-15.53-5.13a17.56,17.56,0,0,0-4.09,1.8h0l-.21.12" transform="translate(0 0)"/><path class="cls-28" d="M111.52,135.77s10.08,2.35,13.22,3.82a65.58,65.58,0,0,1,8.58,5.67h0c.19-.1-1.61-4.83-3.34-5.55s-14.37-5.24-15.53-5.13a10.36,10.36,0,0,0-2.72,1.07h0l-.21.12" transform="translate(0 0)"/><polygon class="cls-13" points="275.1 25.91 277.22 5.5 270.2 0 269.46 0.16 274.14 27.68 275.1 25.91"/><polygon class="cls-13" points="194.28 117.33 195.93 108.64 234.58 79.98 274.14 27.68 274.36 26.07 210.35 58.83 149.67 91.58 194.28 117.33"/><polygon class="cls-15" points="194.5 115.72 196.15 107.03 234.8 78.37 274.36 26.07 263.81 17.77 210.57 57.22 149.89 89.97 194.5 115.72"/><polygon class="cls-22" points="274.36 26.07 276.48 5.66 269.46 0.16 263.81 17.77 274.36 26.07"/><polygon class="cls-21" points="171.44 84.67 171.65 84.55 211.13 62.41 206.35 59.65 205.91 60.41 209.35 62.4 171.44 83.66 166.8 80.98 166.36 81.74 171.44 84.67"/><polygon class="cls-21" points="227 50.94 227.23 50.76 258.8 26.28 255 24.09 254.56 24.84 257.23 26.39 226.93 49.89 223.13 47.7 222.69 48.45 227 50.94"/><polygon class="cls-14" points="274.36 26.07 272.21 24.39 226.16 75.54 186.65 103.69 194.5 115.72 196.15 107.03 234.8 78.37 274.36 26.07"/><path class="cls-21" d="M57.41,51c.44.63,19.59,22.81,29,30l9.44,7.22,29.55,17.16,97.74,56.7s26.57,10.82,38.83,3.72c0,0,.39-1.57-1-5.18a31.17,31.17,0,0,0-1.62-3.42,53.65,53.65,0,0,0-3.7-5.84c-.57-.82-2.28-3.89-2.64-4.36-5.16-6.72-19.7-16.05-19.7-16.05L149.45,82.26l-2.26-1.32-.21-.12a.06.06,0,0,0,0,0l-.12-.09-22.45-13s-11.15-6.75-21.71-9.75-37.3-12.66-41.35-13a3.2,3.2,0,0,0-2.83,1.26,4.9,4.9,0,0,0-.86,1.65A5.25,5.25,0,0,0,57.41,51" transform="translate(0 0)"/><path class="cls-14" d="M241.61,138.17s8.56,6.8,10.94,11.08c-2,2.22-10,2.54-16.84-.31S113.67,76.44,104,72.1,61.89,47.34,62.51,46.35s22.88,6.9,34.2,10.7S114.44,62.49,126,69.44s115.59,68.73,115.59,68.73" transform="translate(0 0)"/><path class="cls-22" d="M57.41,51c.44.63,19.59,22.81,29,30l9.44,7.22,127.29,73.86s26.57,10.82,38.83,3.72c0,0,.39-1.57-1-5.18a31.17,31.17,0,0,0-1.62-3.42c.83,2.63,1.58,5.39,1.34,6.47,0,0-6.39.41-17.73-2.61s-19.5-8.2-28.58-13.41S109.82,86.3,94.76,76.22C81,67,64,51.62,58.48,46.18a4.9,4.9,0,0,0-.86,1.65A5.25,5.25,0,0,0,57.41,51" transform="translate(0 0)"/><path class="cls-13" d="M57.41,51c.44.63,19.59,22.81,29,30l9.44,7.22,127.29,73.86s26.57,10.82,38.83,3.72c0,0,.39-1.57-1-5.18a10.33,10.33,0,0,1,.62,3.89c-11.61,3.3-29.54-3.54-40.07-9.17S105.81,88.81,96.06,82,68,57.6,63.48,53.49C60.69,51,58.71,49,57.62,47.83A5.25,5.25,0,0,0,57.41,51" transform="translate(0 0)"/><path class="cls-23" d="M57.41,51c.44.63,19.58,22.82,29,30l9.45,7.22,127.27,73.84s26.57,10.84,38.85,3.75a4.55,4.55,0,0,0,0-1.52,2.24,2.24,0,0,1-1,1.27c-10.51,3.22-27.8-1.68-37.47-6s-110.47-64-128.24-74.53C78.19,75,58.8,50.65,57.35,48.94A4,4,0,0,0,57.41,51" transform="translate(0 0)"/><path class="cls-36" d="M177.17,133.64s-9.07-.35-20.74-6.18-44.52-22-53.42-30.52a10.42,10.42,0,0,1-3.39-6.34s25.62,9.18,27.79,9.86c1.7.53,26.05,14.55,45.7,26,5.44,3.17,4.06,7.19,4.06,7.19" transform="translate(0 0)"/><path class="cls-21" d="M107.83,95.16s1.71,3.42,8.74,7.15A89.16,89.16,0,0,0,130,108s.72-4.2-1.91-5.73-14.18-6.86-20.24-7.15" transform="translate(0 0)"/><path class="cls-23" d="M107.34,93.36l4.21,1.51s-12.86-2.93-2.15,5.06c8.11,6,55.43,30.53,58.65,30.59a6.55,6.55,0,0,0,5.06-2.45s-.83,2.23,3.84,2.45v0a10.14,10.14,0,0,0,.29,1.07,4.53,4.53,0,0,1-.08,2s-9.07-.34-20.74-6.18-44.52-22-53.42-30.52a10.66,10.66,0,0,1-3.39-6.53s2.4,1,7.72,3" transform="translate(0 0)"/><polygon class="cls-13" points="173.11 130.62 158.06 130.34 108.42 152.65 17.84 175.49 3.46 169.4 3.46 168.09 5.4 168.53 71.79 138.66 158.1 128.48 173.11 128.06 173.11 130.62"/><path class="cls-37" d="M256.07,152s.08.62-1.13,1.74-4.26,2.12-7.82,2.23a20.87,20.87,0,0,1-7.48-1.58s.05-2,0-2.8,4.56.46,7.85.26,6-1.84,6-2.5A12.12,12.12,0,0,0,253,147Z" transform="translate(0 0)"/><polygon class="cls-15" points="173.11 128.07 158.06 129.02 108.42 151.34 17.84 174.17 3.46 168.09 71.79 137.34 128.51 102.31 173.11 128.07"/><polygon class="cls-13" points="17.84 174.17 9.52 159.79 0 155.74 3.46 168.09 17.84 174.17"/><polygon class="cls-21" points="80.77 137.67 119.33 114.75 113.82 111.57 113.38 112.33 117.59 114.76 80.76 136.65 76.87 134.4 76.43 135.16 80.77 137.67"/><polygon class="cls-21" points="18.26 165.23 18.46 165.14 60.98 146.87 56.17 144.09 55.73 144.85 59.02 146.75 18.32 164.25 15.27 162.49 14.83 163.25 18.26 165.23"/><polygon class="cls-14" points="17.84 174.17 14.92 172.94 102.58 146.47 151.34 123.66 173.11 128.07 158.06 129.02 108.42 151.34 17.84 174.17"/><g class="cls-24"><g class="cls-38"><path class="cls-15" d="M259.44,162.9s-10.27-3.48-13.73-7c-1.37-2.48-2.49-4.45-2.49-4.45s-3.92-5.78-8.6-8.8S126.26,79.23,117.51,75.26,59.36,46.9,59.36,46.9a3.61,3.61,0,0,1,1.37-1.36c1.63.81,54.68,24.39,58.68,26.56s112.64,64.5,118.51,68.57,9.57,11.13,9.57,11.13l2.75,3.78s6.86,3.75,9.2,7.32" transform="translate(0 0)"/></g></g><path class="cls-14" d="M62.28.66l9.25,6.63a32.07,32.07,0,0,1,10.6,14.27c4,10.5,10.66,27,14.93,32.17A78.67,78.67,0,0,0,108,65l.64.62-1-.2L62,45.54l.9-.5,8.78-2.68-5.1-19.1L61.37,1.2Z" transform="translate(0 0)"/><path class="cls-21" d="M71.25,43.23,62,45.53,85.54,56.05l7.21,3.07,14.82,6.3s-4.52-3-10.94-10.82c-4.28-5.16-10.95-21.66-14.95-32.17A31.88,31.88,0,0,0,71.09,8.17L69.9,7.32l0,0-8.5-6.09,4.77,22.92Z" transform="translate(0 0)"/><polygon class="cls-13" points="79 67.09 74.23 68.41 30.49 78.67 18.45 73.48 17.87 72.34 81.5 65.4 79 67.09"/><polygon class="cls-14" points="81.5 65.4 74.23 67.17 29.91 77.53 17.87 72.34 58.6 52.17 81.5 65.4"/><path class="cls-39" d="M174.58,121.18a.93.93,0,0,0,.84-.66l.79-2.18a1.21,1.21,0,0,0-.46-1.43l-1.49-.86a.71.71,0,0,0-.4-.11.93.93,0,0,0-.85.65l-.78,2.18a1.2,1.2,0,0,0,.45,1.44l1.49.86a.84.84,0,0,0,.41.11" transform="translate(0 0)"/><path class="cls-37" d="M175.64,117.11l-1.49-.86a.63.63,0,0,0-.92.42l-.79,2.18a1,1,0,0,0,.35,1.16l1.49.86a.64.64,0,0,0,.92-.43l.79-2.18a1,1,0,0,0-.35-1.15" transform="translate(0 0)"/><path class="cls-39" d="M182,125.44a.93.93,0,0,0,.85-.65l.78-2.18a1.2,1.2,0,0,0-.45-1.44l-1.49-.86a.87.87,0,0,0-.41-.11.92.92,0,0,0-.84.66l-.79,2.18a1.22,1.22,0,0,0,.45,1.43l1.49.86a.87.87,0,0,0,.41.11" transform="translate(0 0)"/><path class="cls-37" d="M183,121.37l-1.48-.86a.65.65,0,0,0-.93.42l-.78,2.19a1,1,0,0,0,.35,1.15l1.49.86a.64.64,0,0,0,.92-.42l.79-2.18a1,1,0,0,0-.36-1.16" transform="translate(0 0)"/><path class="cls-39" d="M189.35,129.71a.92.92,0,0,0,.84-.66l.79-2.18a1.22,1.22,0,0,0-.45-1.43l-1.49-.86a.78.78,0,0,0-.41-.12.92.92,0,0,0-.84.66L187,127.3a1.2,1.2,0,0,0,.45,1.44l1.49.86a.87.87,0,0,0,.41.11" transform="translate(0 0)"/><path class="cls-37" d="M190.41,125.63l-1.49-.85a.63.63,0,0,0-.92.42l-.78,2.18a1,1,0,0,0,.35,1.16l1.49.86A.64.64,0,0,0,190,129l.78-2.18a1,1,0,0,0-.35-1.16" transform="translate(0 0)"/><path class="cls-39" d="M208.53,140.78a.92.92,0,0,0,.84-.66l.79-2.18a1.21,1.21,0,0,0-.46-1.43l-1.48-.86a.87.87,0,0,0-.41-.11.94.94,0,0,0-.85.65l-.78,2.19a1.19,1.19,0,0,0,.45,1.43l1.49.86a.84.84,0,0,0,.41.11" transform="translate(0 0)"/><path class="cls-37" d="M209.59,136.71l-1.49-.86a.64.64,0,0,0-.92.42l-.79,2.18a1,1,0,0,0,.35,1.16l1.49.86a.64.64,0,0,0,.92-.42l.79-2.18a1,1,0,0,0-.35-1.16" transform="translate(0 0)"/><path class="cls-39" d="M215.91,145.05a.94.94,0,0,0,.85-.66l.78-2.18a1.2,1.2,0,0,0-.45-1.44l-1.49-.85a.75.75,0,0,0-.41-.12.94.94,0,0,0-.84.66l-.79,2.18a1.21,1.21,0,0,0,.46,1.43l1.49.86a.72.72,0,0,0,.4.12" transform="translate(0 0)"/><path class="cls-37" d="M217,141l-1.49-.86a.64.64,0,0,0-.92.43l-.79,2.18a1,1,0,0,0,.35,1.15l1.49.86a.63.63,0,0,0,.92-.42l.79-2.18A1,1,0,0,0,217,141" transform="translate(0 0)"/><path class="cls-39" d="M196.72,144l-.08,0a.13.13,0,0,1-.08,0l-3.83-2.11c-.4-.23-.89-3.05-.57-4.47a33.31,33.31,0,0,1,2-6.14,2.66,2.66,0,0,1,1-1.55.39.39,0,0,1,.32,0l3.35,1.84c.42.24.31,1.35,0,2.26a35.86,35.86,0,0,0-2,6.11,12.57,12.57,0,0,0,0,2.28c0,1.33,0,1.67-.11,1.77m-.05-.21ZM195.4,130h-.13c-.23.08-.61.56-.91,1.41a33.86,33.86,0,0,0-2,6.11,8.2,8.2,0,0,0,.45,4.22l3.76,2.08a10.35,10.35,0,0,0,0-1.52,11.47,11.47,0,0,1,0-2.33,36.54,36.54,0,0,1,2-6.15c.37-1.05.32-1.87.12-2L195.4,130" transform="translate(0 0)"/><g class="cls-24"><g class="cls-40"><path class="cls-15" d="M115.37,96.18a.08.08,0,0,1-.07,0l-.08,0-3.7-2.25c-.38-.24-.8-3.14-.46-4.57a36.59,36.59,0,0,1,2.07-6.23,2.69,2.69,0,0,1,1.07-1.56.34.34,0,0,1,.31,0l3.23,2c.41.26.27,1.38-.07,2.31a38.79,38.79,0,0,0-2.06,6.2,14.49,14.49,0,0,0-.08,2.33c0,1.36,0,1.71-.16,1.79m0-.2Zm-1-14.19h-.12a2.57,2.57,0,0,0-.93,1.42,37.8,37.8,0,0,0-2.06,6.2,8.62,8.62,0,0,0,.36,4.32l3.63,2.21a11.62,11.62,0,0,0,0-1.55,14,14,0,0,1,.09-2.38,39.42,39.42,0,0,1,2.07-6.24c.39-1.06.35-1.9.16-2l-3.23-2" transform="translate(0 0)"/></g></g><path class="cls-39" d="M167.19,116.91a.91.91,0,0,0,.84-.65l.79-2.18a1.2,1.2,0,0,0-.45-1.44l-1.49-.86a.87.87,0,0,0-.41-.11.92.92,0,0,0-.84.66l-.79,2.18a1.19,1.19,0,0,0,.45,1.43l1.49.86a.77.77,0,0,0,.41.11" transform="translate(0 0)"/><path class="cls-37" d="M168.25,112.84l-1.49-.86a.64.64,0,0,0-.92.42l-.78,2.19a1,1,0,0,0,.35,1.15l1.49.86a.63.63,0,0,0,.92-.42l.78-2.18a1,1,0,0,0-.35-1.16" transform="translate(0 0)"/><path class="cls-39" d="M159.8,112.65a.94.94,0,0,0,.85-.66l.78-2.18a1.19,1.19,0,0,0-.45-1.43l-1.49-.86a.74.74,0,0,0-.41-.11.93.93,0,0,0-.84.65l-.79,2.18a1.22,1.22,0,0,0,.46,1.44l1.49.86a.8.8,0,0,0,.4.11" transform="translate(0 0)"/><path class="cls-37" d="M160.87,108.58l-1.49-.86a.63.63,0,0,0-.92.42l-.79,2.18a1,1,0,0,0,.35,1.16l1.49.86a.64.64,0,0,0,.92-.43l.79-2.18a1,1,0,0,0-.35-1.15" transform="translate(0 0)"/><path class="cls-39" d="M152.42,108.38a.91.91,0,0,0,.84-.65l.79-2.18a1.22,1.22,0,0,0-.46-1.44l-1.48-.86a.87.87,0,0,0-.41-.11.94.94,0,0,0-.85.66l-.78,2.18a1.19,1.19,0,0,0,.45,1.43l1.49.86a.74.74,0,0,0,.41.11" transform="translate(0 0)"/><path class="cls-37" d="M153.48,104.31l-1.49-.86a.64.64,0,0,0-.92.43l-.79,2.18a1,1,0,0,0,.35,1.15l1.49.86a.63.63,0,0,0,.92-.42l.79-2.18a1,1,0,0,0-.35-1.16" transform="translate(0 0)"/><path class="cls-39" d="M145,104.12a.92.92,0,0,0,.84-.66l.79-2.18a1.19,1.19,0,0,0-.45-1.43L144.72,99a.77.77,0,0,0-.41-.11.91.91,0,0,0-.84.65l-.79,2.18a1.23,1.23,0,0,0,.45,1.44l1.49.86a.87.87,0,0,0,.41.11" transform="translate(0 0)"/><path class="cls-37" d="M146.09,100.05l-1.49-.86a.64.64,0,0,0-.92.42l-.78,2.18a1,1,0,0,0,.35,1.16l1.49.86a.64.64,0,0,0,.92-.42l.79-2.18a1,1,0,0,0-.36-1.16" transform="translate(0 0)"/><path class="cls-39" d="M137.65,99.86a.93.93,0,0,0,.84-.66l.79-2.18a1.22,1.22,0,0,0-.46-1.44l-1.49-.85a.72.72,0,0,0-.4-.12.94.94,0,0,0-.85.66l-.78,2.18a1.19,1.19,0,0,0,.45,1.43l1.49.86a.75.75,0,0,0,.41.12" transform="translate(0 0)"/><path class="cls-37" d="M138.71,95.78l-1.49-.86a.64.64,0,0,0-.92.43l-.79,2.18a1,1,0,0,0,.35,1.15l1.49.86a.63.63,0,0,0,.92-.42l.79-2.18a1,1,0,0,0-.35-1.16" transform="translate(0 0)"/><path class="cls-39" d="M130.26,95.59a.92.92,0,0,0,.84-.65l.79-2.19a1.21,1.21,0,0,0-.45-1.43L130,90.46a.87.87,0,0,0-.41-.11.92.92,0,0,0-.84.66l-.79,2.18a1.19,1.19,0,0,0,.45,1.43l1.49.86a.87.87,0,0,0,.41.11" transform="translate(0 0)"/><path class="cls-37" d="M131.32,91.52l-1.49-.86a.64.64,0,0,0-.92.42l-.78,2.18a1,1,0,0,0,.35,1.16l1.49.86a.64.64,0,0,0,.92-.42l.78-2.18a1,1,0,0,0-.35-1.16" transform="translate(0 0)"/><path class="cls-39" d="M122.87,91.33a.94.94,0,0,0,.85-.66l.78-2.18a1.19,1.19,0,0,0-.45-1.43l-1.49-.86a.75.75,0,0,0-.41-.12.93.93,0,0,0-.84.66l-.79,2.18a1.2,1.2,0,0,0,.46,1.43l1.49.86a.72.72,0,0,0,.4.12" transform="translate(0 0)"/><path class="cls-37" d="M123.94,87.25l-1.49-.86a.64.64,0,0,0-.92.43L120.74,89a1,1,0,0,0,.35,1.16l1.49.86a.64.64,0,0,0,.92-.43l.79-2.18a1,1,0,0,0-.35-1.16" transform="translate(0 0)"/><g class="cls-24"><g class="cls-41"><path class="cls-15" d="M98.37,76.13a1.19,1.19,0,0,0,.45,1.43l1.49.86a.74.74,0,0,0,.41.11.93.93,0,0,0,.84-.65l.79-2.18a1.22,1.22,0,0,0-.46-1.44l-1.49-.86a.83.83,0,0,0-.4-.11.94.94,0,0,0-.85.66l-.78,2.18m.56,1.23a1,1,0,0,1-.35-1.15L99.37,74a.64.64,0,0,1,.92-.42l1.49.86a1,1,0,0,1,.35,1.16l-.79,2.18a.64.64,0,0,1-.92.42l-1.49-.86" transform="translate(0 0)"/></g></g><g class="cls-24"><g class="cls-42"><path class="cls-15" d="M105.75,80.39a1.23,1.23,0,0,0,.45,1.44l1.49.86a.87.87,0,0,0,.41.11.92.92,0,0,0,.84-.66l.79-2.18a1.19,1.19,0,0,0-.45-1.43l-1.49-.86a.77.77,0,0,0-.41-.11.91.91,0,0,0-.84.65l-.79,2.18m.57,1.24a1,1,0,0,1-.35-1.16l.78-2.18a.63.63,0,0,1,.92-.42l1.49.86a1,1,0,0,1,.35,1.15l-.78,2.18a.64.64,0,0,1-.92.43l-1.49-.86" transform="translate(0 0)"/></g></g><path class="cls-15" d="M69.9,7.32l4.4,13.32,7.72,25L89,57.51l18.62,7.91s-4.52-3-10.94-10.82c-4.28-5.16-10.95-21.66-14.95-32.17A31.88,31.88,0,0,0,71.09,8.17Z" transform="translate(0 0)"/><polygon class="cls-15" points="75.99 62.21 71 63.73 31.83 73.38 23.55 69.53 58.6 52.17 75.99 62.21"/></g></g></g></g></g></svg>