<?xml version="1.0" encoding="utf-8"?>
<!-- Generator: Adobe Illustrator 24.1.1, SVG Export Plug-In . SVG Version: 6.00 Build 0)  -->
<svg version="1.1" id="Capa_1" xmlns="http://www.w3.org/2000/svg" xmlns:xlink="http://www.w3.org/1999/xlink" x="0px" y="0px"
	 viewBox="0 0 512 512" style="enable-background:new 0 0 512 512;" xml:space="preserve">
<style type="text/css">
	.st0{fill:#9BCCE5;}
	.st1{fill:#515B65;}
	.st2{fill:#C9C9C9;}
	.st3{fill:#E0E4E4;}
	.st4{fill:#FEBB81;}
	.st5{fill:#EAAA7A;}
</style>
<path class="st0" d="M128.5,70.2c-14.7-14.7-38.5-14.7-53.2,0s-14.7,38.5,0,53.2"/>
<polyline class="st1" points="185.2,306.1 161.8,329.5 182.5,350.2 205.9,326.8 326.7,205.9 350.2,182.5 329.5,161.8 306.1,185.2 
	"/>
<path class="st2" d="M217.6,143.6c13.9-0.9,28.2,4,38.9,14.7l119.4,119.4c4.1,4.1,4.1,10.9,0,15l-83.3,83.3c-4.1,4.1-10.9,4.1-15,0
	L158.2,256.5c-11.5-11.5-16.3-27.2-14.3-42.1"/>
<path class="st3" d="M174.8,184.7l-30.9,29.7c-1.9,15,2.8,30.6,14.3,42.1l119.4,119.4c4.1,4.1,10.9,4.1,15,0l23.5-23.5L189.2,225.4
	C178.1,214.3,173.3,199.2,174.8,184.7z"/>
<path class="st2" d="M217.6,143.6c18.7-45.6,9.5-100-27.6-137L11.7,184.9c35.8,35.8,87.6,45.6,132.2,29.4L217.6,143.6z"/>
<path class="st3" d="M185.5,174.4l-41.6,39.9c-44.6,16.1-96.5,6.3-132.2-29.4L53,143.6C88.1,178.7,141.4,189.3,185.5,174.4z"/>
<g>
	
		<rect x="11.9" y="337.6" transform="matrix(0.7071 -0.7071 0.7071 0.7071 -247.1142 197.5691)" class="st0" width="206.1" height="118.9"/>
	
		<rect x="294" y="55.5" transform="matrix(0.7071 -0.7071 0.7071 0.7071 35.0341 314.4323)" class="st0" width="206.1" height="118.9"/>
</g>
<rect x="218.5" y="270.2" transform="matrix(0.7071 -0.7071 0.7071 0.7071 -119.2906 287.9664)" class="st4" width="139" height="35.5"/>
<rect x="232.4" y="303.8" transform="matrix(0.7071 -0.7071 0.7071 0.7071 -152.9014 274.0414)" class="st5" width="43.9" height="35.5"/>
<g>
	
		<rect x="366.2" y="78.5" transform="matrix(0.7071 -0.7071 0.7071 0.7071 12.0298 304.9034)" class="st3" width="15.7" height="118.9"/>
	
		<rect x="412.2" y="32.5" transform="matrix(0.7071 -0.7071 0.7071 0.7071 58.0427 323.9615)" class="st3" width="15.7" height="118.9"/>
	
		<rect x="84.1" y="360.6" transform="matrix(0.7071 -0.7071 0.7071 0.7071 -270.1234 188.0345)" class="st3" width="15.7" height="118.9"/>
	
		<rect x="130.1" y="314.6" transform="matrix(0.7071 -0.7071 0.7071 0.7071 -224.1025 207.0896)" class="st3" width="15.7" height="118.9"/>
</g>
</svg>
