<svg xmlns="http://www.w3.org/2000/svg" xmlns:xlink="http://www.w3.org/1999/xlink" viewBox="0 0 55.42 77.28"><defs><style>.cls-1{fill:none;}.cls-2{isolation:isolate;}.cls-3{clip-path:url(#clip-path);}.cls-4{opacity:0.15;}.cls-5{clip-path:url(#clip-path-3);}.cls-6{mix-blend-mode:multiply;}.cls-7{clip-path:url(#clip-path-5);}.cls-8{fill:url(#Безымянный_градиент);}.cls-9{fill:#8b684f;}.cls-10{fill:#9c7459;}.cls-11{clip-path:url(#clip-path-7);}.cls-12{fill:url(#Безымянный_градиент_2);}</style><clipPath id="clip-path"><rect class="cls-1" x="13.69" y="7.34" width="29.62" height="69.94"/></clipPath><clipPath id="clip-path-3"><rect class="cls-1" x="26.24" y="69.81" width="12.94" height="7.47"/></clipPath><clipPath id="clip-path-5"><path class="cls-1" d="M26,55V73.64h0a1.17,1.17,0,0,0,.7,1,3.75,3.75,0,0,0,3.39,0,1.17,1.17,0,0,0,.7-1h0V55Z"/></clipPath><radialGradient id="Безымянный_градиент" cx="13.69" cy="77.28" r="1" gradientTransform="matrix(18.53, 0, 0, -18.53, -230.92, 1508.27)" gradientUnits="userSpaceOnUse"><stop offset="0" stop-color="#d9a17c"/><stop offset="0.12" stop-color="#d9a17c"/><stop offset="0.95" stop-color="#6d513e"/><stop offset="1" stop-color="#6d513e"/></radialGradient><clipPath id="clip-path-7"><path class="cls-1" d="M26.74,8.64,14.63,46.83c-2.52,3.9,0,8.64,7.72,10.81a22.67,22.67,0,0,0,12.57-.08c5.59-1.65,8.39-4.69,8.39-7.74l-13-41.19a1.86,1.86,0,0,0-3.54,0"/></clipPath><linearGradient id="Безымянный_градиент_2" x1="13.69" y1="77.28" x2="14.69" y2="77.28" gradientTransform="matrix(0, 26.28, 26.28, 0, -2003.03, -336.48)" gradientUnits="userSpaceOnUse"><stop offset="0" stop-color="#008962"/><stop offset="0.18" stop-color="#008962"/><stop offset="0.84" stop-color="#69c729"/><stop offset="1" stop-color="#69c729"/></linearGradient></defs><title>single-tree</title><g class="cls-2"><g id="Слой_2" data-name="Слой 2"><g id="Слой_1-2" data-name="Слой 1"><g class="cls-3"><g class="cls-3"><g class="cls-4"><g class="cls-5"><g class="cls-6"><g class="cls-5"><path d="M37.29,76.19a10.1,10.1,0,0,1-9.15,0c-2.53-1.46-2.53-3.83,0-5.29a10.1,10.1,0,0,1,9.15,0c2.53,1.46,2.53,3.83,0,5.29"/></g></g></g></g></g><g class="cls-7"><rect class="cls-8" x="26.02" y="54.96" width="4.81" height="20.22"/></g><g class="cls-3"><path class="cls-9" d="M27.43,67.29h0A.39.39,0,0,1,27,66.9V65.4a.4.4,0,1,1,.79,0v1.5a.39.39,0,0,1-.4.39"/><path class="cls-9" d="M29.57,68.85h0a.4.4,0,0,1-.4-.4V67A.4.4,0,1,1,30,67v1.5a.4.4,0,0,1-.39.4"/><path class="cls-10" d="M28.22,72h0a.4.4,0,0,1-.39-.4v-1.5a.4.4,0,0,1,.79,0v1.5a.4.4,0,0,1-.4.4"/></g><g class="cls-11"><rect class="cls-12" x="-1.03" y="11.69" width="57.49" height="42.75" transform="translate(-11.09 51.93) rotate(-75.96)"/></g></g></g></g></g></svg>